<svg width="552" height="215" viewBox="0 0 552 215" fill="none" xmlns="http://www.w3.org/2000/svg">
<path d="M552 4.99988C414 5 316.5 21 364.5 67.4999C412.5 114 344.916 121.213 252 117.787" stroke="white" stroke-width="2" stroke-dasharray="2 2"/>
<path d="M238 84C228.601 84 221 91.6685 221 101.15C221 105.413 222.214 109.407 224.424 113.008C226.731 116.781 229.767 120.015 232.099 123.788C233.24 125.626 234.066 127.341 234.94 129.325C235.571 130.673 236.081 133 238 133C239.919 133 240.429 130.673 241.036 129.325C241.934 127.341 242.736 125.626 243.877 123.788C246.209 120.04 249.244 116.806 251.551 113.008C253.786 109.407 255 105.413 255 101.15C255 91.6685 247.399 84 238 84ZM238 107.888C234.649 107.888 231.929 105.144 231.929 101.763C231.929 98.3815 234.649 95.6375 238 95.6375C241.351 95.6375 244.071 98.3815 244.071 101.763C244.071 105.144 241.351 107.888 238 107.888Z" fill="white"/>
<path d="M202.864 147.28C202.917 147.557 203.008 147.963 203.136 148.496C203.168 148.624 203.2 148.773 203.232 148.944C203.275 149.125 203.296 149.237 203.296 149.28C203.296 149.397 203.227 149.504 203.088 149.6C202.96 149.707 202.816 149.76 202.656 149.76C202.56 149.76 202.464 149.664 202.368 149.472C202.272 149.291 202.203 149.056 202.16 148.768C201.968 147.648 201.797 145.915 201.648 143.568L201.424 140.16C200.592 140.992 199.733 141.696 198.848 142.272C198.613 142.421 198.448 142.496 198.352 142.496C198.245 142.496 198.16 142.464 198.096 142.4C198.032 142.325 198 142.256 198 142.192C198 142.053 198.123 141.904 198.368 141.744C198.912 141.392 199.397 141.019 199.824 140.624C200.261 140.229 200.699 139.808 201.136 139.36L201.36 139.136V139.12V138.88V138.72C201.36 138.645 201.376 138.597 201.408 138.576C201.429 138.555 201.451 138.544 201.472 138.544C201.536 138.512 201.611 138.496 201.696 138.496C201.909 138.496 202.08 138.528 202.208 138.592C202.336 138.656 202.4 138.752 202.4 138.88C202.4 139.008 202.336 139.157 202.208 139.328C202.261 139.584 202.293 139.84 202.304 140.096C202.325 140.725 202.405 141.941 202.544 143.744C202.683 145.536 202.789 146.715 202.864 147.28ZM215.753 140.928C215.753 141.173 215.694 141.707 215.577 142.528C215.449 143.467 215.379 143.995 215.369 144.112C215.23 145.424 215.129 146.427 215.065 147.12C215.011 147.803 214.985 148.421 214.985 148.976C214.985 149.435 215.017 149.797 215.081 150.064C215.155 150.331 215.23 150.539 215.305 150.688C215.39 150.848 215.433 150.944 215.433 150.976C215.433 151.072 215.347 151.157 215.177 151.232C215.006 151.307 214.83 151.344 214.649 151.344C214.51 151.344 214.398 151.157 214.313 150.784C214.238 150.411 214.201 149.829 214.201 149.04C214.201 148.443 214.259 147.637 214.377 146.624L214.617 144.416C214.329 144.971 213.971 145.504 213.545 146.016C213.129 146.517 212.697 146.768 212.249 146.768C211.833 146.768 211.459 146.405 211.129 145.68C210.798 144.955 210.537 144.133 210.345 143.216C210.163 142.299 210.073 141.627 210.073 141.2C210.073 140.933 210.153 140.8 210.313 140.8C210.547 140.8 210.697 141.019 210.761 141.456C211.166 144.421 211.731 145.904 212.457 145.904C212.745 145.904 212.995 145.792 213.209 145.568C213.433 145.333 213.694 144.976 213.993 144.496C214.131 144.272 214.281 143.973 214.441 143.6C214.601 143.227 214.723 142.917 214.809 142.672L214.921 141.056C214.942 140.811 214.974 140.64 215.017 140.544C215.059 140.437 215.145 140.384 215.273 140.384C215.379 140.384 215.486 140.448 215.593 140.576C215.699 140.693 215.753 140.811 215.753 140.928ZM223.302 143.92C223.376 143.92 223.414 144 223.414 144.16C223.414 144.352 223.27 144.773 222.982 145.424C222.704 146.075 222.278 146.677 221.702 147.232C221.136 147.787 220.438 148.064 219.606 148.064C218.923 148.064 218.352 147.851 217.894 147.424C217.435 146.997 217.206 146.341 217.206 145.456C217.206 144.624 217.398 143.803 217.782 142.992C218.166 142.171 218.667 141.504 219.286 140.992C219.904 140.469 220.544 140.208 221.206 140.208C221.6 140.208 221.931 140.299 222.198 140.48C222.475 140.651 222.614 140.901 222.614 141.232C222.614 141.605 222.4 141.968 221.974 142.32C221.558 142.672 221.014 142.981 220.342 143.248C219.67 143.515 218.976 143.707 218.262 143.824C218.134 144.315 218.07 144.795 218.07 145.264C218.07 145.883 218.214 146.363 218.502 146.704C218.8 147.045 219.222 147.216 219.766 147.216C220.587 147.216 221.254 146.923 221.766 146.336C222.278 145.749 222.704 145.088 223.046 144.352C223.067 144.309 223.104 144.229 223.158 144.112C223.211 143.984 223.259 143.92 223.302 143.92ZM221.894 141.408C221.894 141.237 221.803 141.104 221.622 141.008C221.451 140.912 221.248 140.864 221.014 140.864C220.608 140.864 220.219 140.997 219.846 141.264C219.472 141.531 219.158 141.851 218.902 142.224C218.656 142.597 218.496 142.928 218.422 143.216C218.912 143.163 219.43 143.024 219.974 142.8C220.518 142.576 220.971 142.331 221.334 142.064C221.707 141.797 221.894 141.579 221.894 141.408ZM231.299 146.976C231.31 147.051 231.353 147.131 231.427 147.216C231.502 147.291 231.539 147.355 231.539 147.408C231.539 147.536 231.486 147.685 231.379 147.856C231.273 148.016 231.166 148.096 231.059 148.096C230.878 148.096 230.739 147.984 230.643 147.76C230.547 147.536 230.499 147.275 230.499 146.976C230.499 146.72 230.515 145.952 230.547 144.672L230.563 144.064C230.563 143.819 230.499 143.643 230.371 143.536C229.891 144.347 229.443 145.051 229.027 145.648C228.611 146.245 228.083 146.811 227.443 147.344C226.803 147.867 226.131 148.128 225.427 148.128C225.086 148.128 224.819 148.021 224.627 147.808C224.446 147.595 224.355 147.317 224.355 146.976C224.355 146.549 224.547 145.968 224.931 145.232C225.315 144.485 225.806 143.733 226.403 142.976C227.001 142.208 227.598 141.579 228.195 141.088C228.59 140.768 228.905 140.555 229.139 140.448C229.374 140.331 229.582 140.272 229.763 140.272C229.934 140.272 230.11 140.325 230.291 140.432C230.473 140.539 230.627 140.688 230.755 140.88C230.883 141.072 230.947 141.291 230.947 141.536C230.947 141.867 230.857 142.181 230.675 142.48L230.947 142.4C231.065 142.4 231.134 142.544 231.155 142.832C231.166 143.003 231.177 143.349 231.187 143.872C231.209 144.395 231.225 144.827 231.235 145.168C231.246 145.52 231.257 145.861 231.267 146.192C231.278 146.523 231.289 146.784 231.299 146.976ZM225.651 147.264C226.227 147.264 226.782 147.051 227.315 146.624C227.849 146.197 228.323 145.691 228.739 145.104C229.166 144.507 229.635 143.776 230.147 142.912C230.275 142.592 230.339 142.245 230.339 141.872C230.339 141.648 230.27 141.456 230.131 141.296C230.003 141.125 229.827 141.04 229.603 141.04C229.337 141.04 228.995 141.221 228.579 141.584C228.099 141.989 227.593 142.533 227.059 143.216C226.526 143.888 226.083 144.555 225.731 145.216C225.379 145.877 225.203 146.4 225.203 146.784C225.203 147.104 225.353 147.264 225.651 147.264ZM238.632 141.264C238.632 141.36 238.563 141.472 238.424 141.6C238.296 141.717 238.184 141.776 238.088 141.776C238.013 141.776 237.939 141.744 237.864 141.68C237.8 141.616 237.725 141.525 237.64 141.408C237.565 141.301 237.464 141.211 237.336 141.136C237.219 141.061 237.096 141.024 236.968 141.024C236.659 141.024 236.243 141.435 235.72 142.256C235.197 143.067 234.685 144.091 234.184 145.328C234.195 145.573 234.211 145.883 234.232 146.256C234.264 146.629 234.285 146.907 234.296 147.088L234.344 147.728C234.344 147.877 234.312 148.005 234.248 148.112C234.184 148.229 234.067 148.288 233.896 148.288C233.715 148.288 233.597 148.048 233.544 147.568C233.491 147.077 233.459 146.368 233.448 145.44C233.437 145.205 233.427 144.869 233.416 144.432C233.416 143.995 233.405 143.472 233.384 142.864C233.352 141.947 233.336 141.291 233.336 140.896C233.336 140.651 233.485 140.528 233.784 140.528C233.965 140.528 234.072 140.608 234.104 140.768C234.147 140.917 234.168 141.211 234.168 141.648V144.192C234.488 143.371 234.835 142.661 235.208 142.064C235.581 141.467 235.944 141.013 236.296 140.704C236.659 140.384 236.979 140.224 237.256 140.224C237.491 140.224 237.715 140.277 237.928 140.384C238.141 140.491 238.312 140.629 238.44 140.8C238.568 140.96 238.632 141.115 238.632 141.264ZM245.915 147.568C245.915 147.675 245.846 147.76 245.707 147.824C245.568 147.888 245.414 147.92 245.243 147.92C245.115 147.92 244.992 147.771 244.875 147.472C244.768 147.163 244.715 146.699 244.715 146.08C244.726 144.875 244.742 143.419 244.763 141.712C244.795 140.005 244.822 138.72 244.843 137.856C244.854 137.547 244.907 137.259 245.003 136.992C245.11 136.725 245.291 136.592 245.547 136.592C245.632 136.592 245.686 136.64 245.707 136.736C245.739 136.821 245.755 136.992 245.755 137.248C245.755 137.259 245.75 137.296 245.739 137.36C245.739 137.413 245.739 137.515 245.739 137.664C245.547 140.469 245.451 143.205 245.451 145.872C245.451 146.213 245.526 146.576 245.675 146.96C245.835 147.344 245.915 147.547 245.915 147.568ZM254.19 146.976C254.201 147.051 254.243 147.131 254.318 147.216C254.393 147.291 254.43 147.355 254.43 147.408C254.43 147.536 254.377 147.685 254.27 147.856C254.163 148.016 254.057 148.096 253.95 148.096C253.769 148.096 253.63 147.984 253.534 147.76C253.438 147.536 253.39 147.275 253.39 146.976C253.39 146.72 253.406 145.952 253.438 144.672L253.454 144.064C253.454 143.819 253.39 143.643 253.262 143.536C252.782 144.347 252.334 145.051 251.918 145.648C251.502 146.245 250.974 146.811 250.334 147.344C249.694 147.867 249.022 148.128 248.318 148.128C247.977 148.128 247.71 148.021 247.518 147.808C247.337 147.595 247.246 147.317 247.246 146.976C247.246 146.549 247.438 145.968 247.822 145.232C248.206 144.485 248.697 143.733 249.294 142.976C249.891 142.208 250.489 141.579 251.086 141.088C251.481 140.768 251.795 140.555 252.03 140.448C252.265 140.331 252.473 140.272 252.654 140.272C252.825 140.272 253.001 140.325 253.182 140.432C253.363 140.539 253.518 140.688 253.646 140.88C253.774 141.072 253.838 141.291 253.838 141.536C253.838 141.867 253.747 142.181 253.566 142.48L253.838 142.4C253.955 142.4 254.025 142.544 254.046 142.832C254.057 143.003 254.067 143.349 254.078 143.872C254.099 144.395 254.115 144.827 254.126 145.168C254.137 145.52 254.147 145.861 254.158 146.192C254.169 146.523 254.179 146.784 254.19 146.976ZM248.542 147.264C249.118 147.264 249.673 147.051 250.206 146.624C250.739 146.197 251.214 145.691 251.63 145.104C252.057 144.507 252.526 143.776 253.038 142.912C253.166 142.592 253.23 142.245 253.23 141.872C253.23 141.648 253.161 141.456 253.022 141.296C252.894 141.125 252.718 141.04 252.494 141.04C252.227 141.04 251.886 141.221 251.47 141.584C250.99 141.989 250.483 142.533 249.95 143.216C249.417 143.888 248.974 144.555 248.622 145.216C248.27 145.877 248.094 146.4 248.094 146.784C248.094 147.104 248.243 147.264 248.542 147.264ZM263.123 141.376C263.123 141.557 263.043 141.696 262.883 141.792C262.733 141.888 262.456 141.963 262.051 142.016C261.069 142.187 260.52 142.283 260.403 142.304L259.363 142.48C259.363 143.035 259.368 143.616 259.379 144.224C259.4 144.832 259.427 145.365 259.459 145.824C259.501 146.443 259.576 146.917 259.683 147.248C259.789 147.579 259.848 147.765 259.859 147.808C259.859 147.915 259.789 148.011 259.651 148.096C259.523 148.192 259.4 148.24 259.283 148.24C259.219 148.24 259.165 148.219 259.123 148.176C259.08 148.144 259.043 148.085 259.011 148C258.947 147.851 258.883 147.573 258.819 147.168C258.765 146.763 258.723 146.315 258.691 145.824C258.659 145.387 258.632 144.88 258.611 144.304C258.6 143.717 258.595 143.152 258.595 142.608C257.997 142.704 257.384 142.821 256.755 142.96C256.189 143.077 255.853 143.136 255.747 143.136C255.619 143.136 255.496 143.099 255.379 143.024C255.272 142.949 255.219 142.848 255.219 142.72C255.219 142.581 255.267 142.491 255.363 142.448C255.459 142.405 255.619 142.384 255.843 142.384C256.003 142.384 256.237 142.357 256.547 142.304C256.856 142.24 257.053 142.197 257.139 142.176C257.853 142.037 258.339 141.947 258.595 141.904C258.595 141.68 258.584 141.387 258.563 141.024C258.541 140.533 258.531 140.16 258.531 139.904C258.531 139.488 258.541 139.168 258.563 138.944C258.595 138.709 258.648 138.501 258.723 138.32C258.808 138.107 258.968 138 259.203 138C259.299 138 259.363 138.016 259.395 138.048C259.427 138.08 259.443 138.139 259.443 138.224C259.443 138.288 259.416 138.475 259.363 138.784C259.309 139.093 259.283 139.504 259.283 140.016C259.283 140.411 259.293 140.853 259.315 141.344L259.331 141.776C259.811 141.701 260.76 141.504 262.179 141.184C262.264 141.163 262.333 141.088 262.387 140.96C262.451 140.832 262.515 140.768 262.579 140.768C262.696 140.768 262.813 140.837 262.931 140.976C263.059 141.104 263.123 141.237 263.123 141.376ZM269.989 143.92C270.064 143.92 270.101 144 270.101 144.16C270.101 144.352 269.957 144.773 269.669 145.424C269.392 146.075 268.965 146.677 268.389 147.232C267.824 147.787 267.125 148.064 266.293 148.064C265.61 148.064 265.04 147.851 264.581 147.424C264.122 146.997 263.893 146.341 263.893 145.456C263.893 144.624 264.085 143.803 264.469 142.992C264.853 142.171 265.354 141.504 265.973 140.992C266.592 140.469 267.232 140.208 267.893 140.208C268.288 140.208 268.618 140.299 268.885 140.48C269.162 140.651 269.301 140.901 269.301 141.232C269.301 141.605 269.088 141.968 268.661 142.32C268.245 142.672 267.701 142.981 267.029 143.248C266.357 143.515 265.664 143.707 264.949 143.824C264.821 144.315 264.757 144.795 264.757 145.264C264.757 145.883 264.901 146.363 265.189 146.704C265.488 147.045 265.909 147.216 266.453 147.216C267.274 147.216 267.941 146.923 268.453 146.336C268.965 145.749 269.392 145.088 269.733 144.352C269.754 144.309 269.792 144.229 269.845 144.112C269.898 143.984 269.946 143.92 269.989 143.92ZM268.581 141.408C268.581 141.237 268.49 141.104 268.309 141.008C268.138 140.912 267.936 140.864 267.701 140.864C267.296 140.864 266.906 140.997 266.533 141.264C266.16 141.531 265.845 141.851 265.589 142.224C265.344 142.597 265.184 142.928 265.109 143.216C265.6 143.163 266.117 143.024 266.661 142.8C267.205 142.576 267.658 142.331 268.021 142.064C268.394 141.797 268.581 141.579 268.581 141.408ZM276.851 141.264C276.851 141.36 276.782 141.472 276.643 141.6C276.515 141.717 276.403 141.776 276.307 141.776C276.232 141.776 276.158 141.744 276.083 141.68C276.019 141.616 275.944 141.525 275.859 141.408C275.784 141.301 275.683 141.211 275.555 141.136C275.438 141.061 275.315 141.024 275.187 141.024C274.878 141.024 274.462 141.435 273.939 142.256C273.416 143.067 272.904 144.091 272.403 145.328C272.414 145.573 272.43 145.883 272.451 146.256C272.483 146.629 272.504 146.907 272.515 147.088L272.563 147.728C272.563 147.877 272.531 148.005 272.467 148.112C272.403 148.229 272.286 148.288 272.115 148.288C271.934 148.288 271.816 148.048 271.763 147.568C271.71 147.077 271.678 146.368 271.667 145.44C271.656 145.205 271.646 144.869 271.635 144.432C271.635 143.995 271.624 143.472 271.603 142.864C271.571 141.947 271.555 141.291 271.555 140.896C271.555 140.651 271.704 140.528 272.003 140.528C272.184 140.528 272.291 140.608 272.323 140.768C272.366 140.917 272.387 141.211 272.387 141.648V144.192C272.707 143.371 273.054 142.661 273.427 142.064C273.8 141.467 274.163 141.013 274.515 140.704C274.878 140.384 275.198 140.224 275.475 140.224C275.71 140.224 275.934 140.277 276.147 140.384C276.36 140.491 276.531 140.629 276.659 140.8C276.787 140.96 276.851 141.115 276.851 141.264Z" fill="white"/>
<path d="M91.5 118L91.4833 119L91.4917 119H91.5V118ZM63 90.5L63.9985 90.5555L63 90.5ZM55 158L55.4573 158.889L55 158ZM1.5 214.5L11.0821 208.057L0.710874 202.98L1.5 214.5ZM3.71987 212.326C4.0109 211.776 4.3202 211.205 4.64753 210.615L2.89859 209.644C2.56498 210.246 2.2493 210.829 1.95179 211.391L3.71987 212.326ZM5.61116 208.914C5.92878 208.364 6.26016 207.802 6.60515 207.226L4.89005 206.198C4.53961 206.782 4.20276 207.354 3.87969 207.913L5.61116 208.914ZM7.62612 205.553C7.96367 205.009 8.31234 204.456 8.67202 203.894L6.98779 202.816C6.623 203.386 6.26926 203.947 5.92669 204.499L7.62612 205.553ZM9.74155 202.249C10.0962 201.712 10.4604 201.168 10.8338 200.618L9.17933 199.494C8.80087 200.052 8.4318 200.603 8.07224 201.148L9.74155 202.249ZM11.9483 199C12.3182 198.47 12.6963 197.936 13.0825 197.398L11.4576 196.232C11.0663 196.777 10.6833 197.318 10.3086 197.855L11.9483 199ZM14.2341 195.814C14.6177 195.293 15.0087 194.77 15.4069 194.243L13.812 193.037C13.4086 193.57 13.0126 194.1 12.624 194.628L14.2341 195.814ZM16.6009 192.686C16.9993 192.173 17.4043 191.658 17.816 191.142L16.2521 189.895C15.8351 190.418 15.4248 190.94 15.0214 191.459L16.6009 192.686ZM19.0498 189.614C19.4603 189.112 19.8769 188.61 20.2996 188.107L18.7682 186.82C18.3399 187.33 17.9178 187.839 17.502 188.347L19.0498 189.614ZM21.5708 186.613C21.9958 186.12 22.4266 185.627 22.8631 185.134L21.3659 183.808C20.9235 184.308 20.4869 184.807 20.0562 185.307L21.5708 186.613ZM24.174 183.674C24.6112 183.194 25.0539 182.714 25.5018 182.235L24.041 180.869C23.5867 181.354 23.138 181.841 22.6947 182.328L24.174 183.674ZM26.8511 180.811C27.3029 180.342 27.7598 179.873 28.2217 179.406L26.7997 177.999C26.3311 178.473 25.8676 178.949 25.4094 179.425L26.8511 180.811ZM29.6088 178.023C30.0733 177.567 30.5425 177.113 31.0166 176.661L29.6363 175.214C29.155 175.673 28.6787 176.134 28.2073 176.597L29.6088 178.023ZM32.4458 175.318C32.924 174.876 33.4068 174.436 33.8942 173.999L32.5588 172.51C32.0637 172.954 31.5732 173.401 31.0876 173.85L32.4458 175.318ZM35.3619 172.703C35.8539 172.276 36.3504 171.852 36.8513 171.431L35.5645 169.9C35.0552 170.328 34.5504 170.759 34.0503 171.193L35.3619 172.703ZM38.3611 170.183C38.8666 169.773 39.3762 169.366 39.8902 168.963L38.6561 167.389C38.133 167.799 37.6144 168.213 37.1002 168.631L38.3611 170.183ZM41.441 167.769C41.9608 167.376 42.4848 166.987 43.0129 166.602L41.836 164.985C41.298 165.377 40.7643 165.773 40.2349 166.173L41.441 167.769ZM44.6042 165.467C45.1379 165.093 45.6756 164.725 46.2172 164.361L45.1025 162.701C44.55 163.072 44.0018 163.447 43.4578 163.828L44.6042 165.467ZM47.8515 163.287C48.3988 162.935 48.9501 162.589 49.5052 162.247L48.458 160.544C47.8912 160.892 47.3284 161.246 46.7698 161.605L47.8515 163.287ZM51.1803 161.242C51.7418 160.913 52.3072 160.59 52.8762 160.272L51.9025 158.525C51.3206 158.85 50.7428 159.18 50.169 159.516L51.1803 161.242ZM54.5914 159.341C54.8792 159.189 55.1678 159.038 55.4573 158.889L54.5427 157.111C54.2463 157.263 53.951 157.417 53.6566 157.573L54.5914 159.341ZM55.4573 158.889C55.7513 158.738 56.0444 158.588 56.3366 158.439L55.4288 156.657C55.1343 156.807 54.8389 156.958 54.5427 157.111L55.4573 158.889ZM58.08 157.559C58.6686 157.265 59.2537 156.975 59.8352 156.69L58.9536 154.894C58.3678 155.182 57.7785 155.474 57.1855 155.771L58.08 157.559ZM61.5868 155.837C62.1811 155.55 62.7717 155.267 63.3585 154.988L62.5003 153.182C61.9099 153.462 61.3155 153.747 60.7173 154.036L61.5868 155.837ZM65.1198 154.158C65.7179 153.878 66.312 153.602 66.9022 153.33L66.064 151.514C65.4709 151.788 64.8736 152.065 64.2721 152.347L65.1198 154.158ZM68.6795 152.514C69.2777 152.242 69.8717 151.972 70.4614 151.706L69.6387 149.883C69.0469 150.15 68.4505 150.421 67.8497 150.695L68.6795 152.514ZM72.2529 150.901C72.8518 150.633 73.4462 150.368 74.0362 150.106L73.2233 148.278C72.6323 148.541 72.0365 148.807 71.4359 149.076L72.2529 150.901ZM75.8337 149.308C76.4369 149.04 77.0349 148.775 77.6284 148.512L76.8182 146.684C76.2252 146.947 75.6265 147.212 75.0231 147.479L75.8337 149.308ZM79.4156 147.72C80.0213 147.45 80.6219 147.183 81.2173 146.917L80.4008 145.091C79.8073 145.356 79.2082 145.623 78.6034 145.892L79.4156 147.72ZM83.011 146.111C83.6117 145.839 84.2068 145.569 84.7964 145.299L83.9631 143.48C83.3773 143.749 82.7855 144.018 82.1876 144.288L83.011 146.111ZM86.5884 144.47C87.1891 144.189 87.7839 143.908 88.3727 143.627L87.5098 141.823C86.9271 142.101 86.3378 142.379 85.742 142.658L86.5884 144.47ZM90.1458 142.767C90.7404 142.475 91.3287 142.181 91.9105 141.884L91.0036 140.102C90.4303 140.394 89.8501 140.684 89.2628 140.973L90.1458 142.767ZM93.6704 140.972C94.2582 140.661 94.8392 140.347 95.4133 140.03L94.4456 138.279C93.8829 138.59 93.3128 138.898 92.7352 139.204L93.6704 140.972ZM97.1373 139.053C97.7122 138.719 98.2799 138.381 98.8402 138.037L97.7945 136.332C97.2485 136.667 96.6946 136.997 96.1328 137.324L97.1373 139.053ZM100.524 136.973C101.084 136.609 101.635 136.239 102.178 135.861L101.038 134.218C100.511 134.584 99.9764 134.943 99.4333 135.297L100.524 136.973ZM103.798 134.698C104.333 134.3 104.86 133.893 105.379 133.478L104.129 131.917C103.63 132.317 103.121 132.708 102.604 133.093L103.798 134.698ZM106.917 132.2C107.421 131.764 107.918 131.319 108.406 130.862L107.039 129.402C106.571 129.84 106.094 130.268 105.609 130.687L106.917 132.2ZM109.839 129.464C110.306 128.99 110.764 128.505 111.214 128.007L109.731 126.666C109.3 127.142 108.861 127.607 108.414 128.061L109.839 129.464ZM112.527 126.492C112.951 125.98 113.367 125.456 113.775 124.92L112.182 123.71C111.792 124.224 111.394 124.725 110.987 125.215L112.527 126.492ZM114.953 123.299C115.329 122.757 115.698 122.203 116.06 121.635L114.372 120.562C114.026 121.106 113.672 121.638 113.311 122.158L114.953 123.299ZM117.1 119.926C117.432 119.355 117.757 118.77 118.075 118.173L116.31 117.234C116.004 117.809 115.691 118.371 115.371 118.92L117.1 119.926ZM118.981 116.395C119.267 115.806 119.547 115.205 119.821 114.591L117.994 113.777C117.73 114.371 117.459 114.951 117.182 115.519L118.981 116.395ZM120.605 112.752C120.853 112.146 121.095 111.527 121.331 110.896L119.457 110.195C119.228 110.808 118.994 111.409 118.754 111.997L120.605 112.752ZM121.998 109.03C122.211 108.409 122.419 107.776 122.621 107.131L120.713 106.532C120.516 107.161 120.313 107.777 120.106 108.382L121.998 109.03ZM123.19 105.237C123.283 104.916 123.374 104.592 123.464 104.265L121.536 103.735C121.448 104.054 121.359 104.371 121.269 104.684L123.19 105.237ZM123.464 104.265C123.557 103.927 123.647 103.59 123.734 103.257L121.798 102.754C121.714 103.078 121.627 103.405 121.536 103.735L123.464 104.265ZM124.216 101.284C124.372 100.599 124.514 99.9254 124.642 99.2626L122.679 98.8825C122.555 99.5232 122.417 100.175 122.266 100.839L124.216 101.284ZM124.996 97.2474C125.103 96.5613 125.196 95.8873 125.273 95.2254L123.287 94.9924C123.212 95.6281 123.124 96.2764 123.02 96.9376L124.996 97.2474ZM125.471 93.162C125.523 92.4604 125.558 91.7731 125.576 91.0999L123.576 91.0462C123.559 91.6875 123.526 92.3436 123.477 93.0147L125.471 93.162ZM125.579 89.0373C125.562 88.3335 125.526 87.6462 125.472 86.9749L123.479 87.135C123.529 87.7684 123.563 88.4185 123.58 89.0858L125.579 89.0373ZM125.245 84.9166C125.145 84.2133 125.024 83.5292 124.884 82.8639L122.927 83.2753C123.058 83.8967 123.171 84.5373 123.264 85.1976L125.245 84.9166ZM124.383 80.8369C124.187 80.1525 123.97 79.4903 123.733 78.8496L121.857 79.5438C122.077 80.1366 122.278 80.7507 122.46 81.3867L124.383 80.8369ZM122.929 76.9165C122.629 76.269 122.307 75.6466 121.966 75.0483L120.228 76.0379C120.542 76.5882 120.838 77.1613 121.115 77.7583L122.929 76.9165ZM120.85 73.2669C120.446 72.6804 120.024 72.121 119.586 71.5876L118.04 72.8572C118.443 73.3475 118.831 73.8615 119.202 74.4003L120.85 73.2669ZM118.186 70.0234C117.692 69.5159 117.184 69.0363 116.664 68.5834L115.35 70.0909C115.83 70.509 116.298 70.9511 116.753 71.4183L118.186 70.0234ZM115.031 67.2703C114.462 66.8488 113.885 66.4554 113.303 66.0887L112.237 67.7808C112.778 68.1216 113.313 68.4866 113.84 68.8769L115.031 67.2703ZM111.499 65.0413C110.874 64.7078 110.248 64.4026 109.625 64.1236L108.808 65.9488C109.39 66.2097 109.975 66.4948 110.557 66.8058L111.499 65.0413ZM107.696 63.3358C107.027 63.088 106.367 62.8694 105.722 62.6775L105.152 64.5946C105.756 64.7743 106.375 64.9792 107.002 65.2114L107.696 63.3358ZM103.709 62.1505C102.991 61.9882 102.303 61.8596 101.652 61.7612L101.353 63.7386C101.955 63.8298 102.597 63.9495 103.267 64.1012L103.709 62.1505ZM99.5606 61.5342C99.1849 61.5111 98.8303 61.5 98.5 61.5V63.5C98.7859 63.5 99.0995 63.5096 99.4379 63.5304L99.5606 61.5342ZM98.5 61.5C98.1977 61.5 97.8693 61.5014 97.5173 61.5056L97.5409 63.5054C97.8836 63.5014 98.2039 63.5 98.5 63.5V61.5ZM95.5318 61.557C94.9077 61.5825 94.2413 61.6187 93.5396 61.6699L93.6852 63.6646C94.3635 63.6151 95.0084 63.58 95.6132 63.5554L95.5318 61.557ZM91.5631 61.8479C90.9211 61.917 90.2583 61.9995 89.5791 62.0981L89.8663 64.0773C90.5196 63.9825 91.1579 63.903 91.777 63.8364L91.5631 61.8479ZM87.6133 62.4226C86.9694 62.5422 86.315 62.6772 85.6534 62.8295L86.1021 64.7785C86.7344 64.6329 87.3609 64.5037 87.9785 64.389L87.6133 62.4226ZM83.711 63.3235C83.0746 63.5013 82.4345 63.6963 81.7935 63.9104L82.427 65.8074C83.0349 65.6044 83.6431 65.419 84.2491 65.2498L83.711 63.3235ZM79.9034 64.5983C79.2832 64.8434 78.6646 65.108 78.0501 65.3937L78.8932 67.2073C79.4706 66.9389 80.0532 66.6897 80.6386 66.4582L79.9034 64.5983ZM76.2458 66.3021C75.6574 66.6223 75.0753 66.9641 74.5019 67.3288L75.5752 69.0164C76.1089 68.677 76.6518 68.3582 77.2019 68.0587L76.2458 66.3021ZM72.8304 68.4781C72.2908 68.879 71.7617 69.303 71.2456 69.7514L72.5572 71.2612C73.0338 70.8472 73.523 70.455 74.023 70.0836L72.8304 68.4781ZM69.762 71.1468C69.291 71.6268 68.8341 72.1304 68.3936 72.659L69.9299 73.9395C70.3351 73.4533 70.7555 72.9898 71.1893 72.5478L69.762 71.1468ZM67.1543 74.2754C66.7695 74.8221 66.4011 75.3918 66.051 75.9853L67.7735 77.0016C68.0964 76.4544 68.4356 75.9297 68.7898 75.4266L67.1543 74.2754ZM65.0874 77.7755C64.7951 78.3727 64.5203 78.9911 64.264 79.6313L66.1208 80.3745C66.3588 79.7799 66.6135 79.2069 66.8838 78.6546L65.0874 77.7755ZM63.5778 81.5388C63.3756 82.1686 63.1903 82.8175 63.0229 83.4859L64.963 83.9717C65.12 83.3449 65.2934 82.7379 65.4821 82.1502L63.5778 81.5388ZM62.5925 85.4581C62.4721 86.1013 62.3673 86.761 62.2788 87.4376L64.2619 87.6969C64.3457 87.0559 64.4448 86.4325 64.5583 85.8263L62.5925 85.4581ZM62.0702 89.4277C62.0435 89.7628 62.0206 90.1017 62.0015 90.4445L63.9985 90.5555C64.0166 90.2285 64.0385 89.9055 64.0639 89.5867L62.0702 89.4277ZM62.0015 90.4445C61.9817 90.8011 61.9674 91.1538 61.9586 91.5025L63.9579 91.5534C63.9663 91.225 63.9797 90.8923 63.9985 90.5555L62.0015 90.4445ZM61.9712 93.5988C61.9988 94.3153 62.0504 95.0139 62.1248 95.6949L64.113 95.4778C64.0438 94.8442 63.9956 94.1924 63.9697 93.5218L61.9712 93.5988ZM62.4325 97.7788C62.5651 98.4857 62.7236 99.1718 62.9065 99.8374L64.835 99.3077C64.667 98.6959 64.5208 98.0636 64.3982 97.4101L62.4325 97.7788ZM63.5583 101.86C63.8096 102.536 64.0874 103.187 64.3893 103.816L66.192 102.949C65.9165 102.376 65.6627 101.781 65.4328 101.163L63.5583 101.86ZM65.3972 105.684C65.7678 106.3 66.1627 106.89 66.5794 107.455L68.189 106.268C67.8088 105.752 67.4487 105.214 67.111 104.653L65.3972 105.684ZM67.9174 109.104C68.3914 109.637 68.8854 110.144 69.3963 110.625L70.7677 109.169C70.2982 108.727 69.8453 108.262 69.4115 107.775L67.9174 109.104ZM70.9967 112.01C71.5507 112.451 72.1193 112.867 72.699 113.259L73.8187 111.601C73.2804 111.238 72.7539 110.853 72.2421 110.445L70.9967 112.01ZM74.4864 114.373C75.0978 114.724 75.7176 115.052 76.3425 115.357L77.2199 113.56C76.6337 113.274 76.0537 112.967 75.483 112.639L74.4864 114.373ZM78.2553 116.217C78.9069 116.485 79.5607 116.732 80.213 116.957L80.8652 115.066C80.2486 114.853 79.6318 114.621 79.0179 114.368L78.2553 116.217ZM82.2066 117.582C82.8886 117.775 83.5653 117.946 84.2324 118.096L84.672 116.145C84.0393 116.003 83.3977 115.841 82.7516 115.658L82.2066 117.582ZM86.2797 118.5C86.9862 118.62 87.6766 118.716 88.3453 118.792L88.5691 116.804C87.9371 116.733 87.2834 116.642 86.6135 116.528L86.2797 118.5ZM90.4338 118.964C90.7931 118.982 91.1433 118.994 91.4833 119L91.5167 117C91.2002 116.995 90.873 116.984 90.5361 116.967L90.4338 118.964ZM91.5 119H92.5076V117H91.5V119ZM94.5227 119H96.5379V117H94.5227V119ZM98.553 119H100.568V117H98.553V119ZM102.583 119H104.598V117H102.583V119ZM106.614 119H108.629V117H106.614V119ZM110.644 119H112.659V117H110.644V119ZM114.674 119H116.689V117H114.674V119ZM118.705 119H120.72V117H118.705V119ZM122.735 119H124.75V117H122.735V119ZM126.765 119H128.78V117H126.765V119ZM130.795 119H132.811V117H130.795V119ZM134.826 119H136.841V117H134.826V119ZM138.856 119H140.871V117H138.856V119ZM142.886 119H144.902V117H142.886V119ZM146.917 119H148.932V117H146.917V119ZM150.947 119H152.962V117H150.947V119ZM154.977 119H156.992V117H154.977V119ZM159.008 119H161.023V117H159.008V119ZM163.038 119H165.053V117H163.038V119ZM167.068 119H169.083V117H167.068V119ZM171.098 119H173.114V117H171.098V119ZM175.129 119H177.144V117H175.129V119ZM179.159 119H181.174V117H179.159V119ZM183.189 119H185.205V117H183.189V119ZM187.22 119H189.235V117H187.22V119ZM191.25 119H193.265V117H191.25V119ZM195.28 119H197.295V117H195.28V119ZM199.311 119H201.326V117H199.311V119ZM203.341 119H205.356V117H203.341V119ZM207.371 119H209.386V117H207.371V119ZM211.402 119H213.417V117H211.402V119ZM215.432 119H217.447V117H215.432V119ZM219.462 119H221.477V117H219.462V119ZM223.492 119H224.5V117H223.492V119Z" fill="white"/>
</svg>
