<svg width="611" height="263" viewBox="0 0 611 263" fill="none" xmlns="http://www.w3.org/2000/svg">
<path d="M338.231 178.952L338.187 171.486L345.368 167.468L306.257 146.842L267.361 167.88L282.956 176.834L282.987 182.154L282.99 182.579L283.132 182.511C282.968 182.734 282.863 182.963 282.866 183.193C282.878 185.81 293.441 187.88 306.478 187.809C319.508 187.741 330.056 185.549 330.046 182.939C330.046 182.709 329.925 182.486 329.764 182.257L329.907 182.325V181.9L329.879 176.558L336.641 172.351L336.678 178.961C335.934 179.28 335.416 180.012 335.422 180.868C335.428 181.99 336.34 182.898 337.471 182.889C338.609 182.883 339.511 181.965 339.505 180.846C339.499 179.99 338.978 179.265 338.231 178.952ZM306.468 186.008C294.901 186.073 285.52 184.802 285.51 183.18C285.501 181.559 294.87 180.198 306.437 180.139C318.008 180.074 327.386 181.339 327.393 182.957C327.401 184.573 318.039 185.946 306.468 186.008ZM329.345 172.224C327.78 170.578 322.168 166.231 306.363 166.321C290.536 166.405 284.996 170.804 283.449 172.475L283.439 170.9C283.439 170.9 287.929 164.07 306.351 163.974C324.764 163.875 329.337 170.652 329.337 170.652L329.345 172.224ZM335.825 183.335L335.028 194.896C337.493 191.024 339.552 192.466 339.552 192.466L339.502 183.317C336.854 184.356 335.825 183.335 335.825 183.335Z" fill="white"/>
<path d="M272.184 156.272C265.874 152.964 260.825 147.827 255 143.775" stroke="white" stroke-width="3" stroke-linecap="round"/>
<path d="M282.728 150.414C281.187 140.551 276.996 131.147 273.355 121.905" stroke="white" stroke-width="3" stroke-linecap="round"/>
<path d="M306.551 140.651C305.2 139.6 305.318 134.208 305.205 132.992C304.742 128.001 304.598 123.009 304.598 118" stroke="white" stroke-width="3" stroke-linecap="round"/>
<path d="M328.42 147.29C334.942 142.974 339.394 136.492 343.651 130.107" stroke="white" stroke-width="3" stroke-linecap="round"/>
<path d="M348.728 160.178C353.757 159.507 358.589 157.509 362.787 154.71" stroke="white" stroke-width="3" stroke-linecap="round"/>
<path d="M350.29 174.628C351.935 174.833 353.585 175.018 355.367 175.018" stroke="white" stroke-width="3" stroke-linecap="round"/>
<path d="M270.231 176.19C268.638 176.19 267.121 176.383 265.544 176.58" stroke="white" stroke-width="3" stroke-linecap="round"/>
<path d="M610 262.5L610.09 250.953L600.045 256.649L610 262.5ZM358.5 168.5C358.813 168.5 359.131 168.501 359.452 168.503L359.463 166.503C359.138 166.501 358.817 166.5 358.5 166.5V168.5ZM361.429 168.524C362.103 168.534 362.793 168.548 363.499 168.566L363.549 166.566C362.837 166.549 362.141 166.534 361.46 166.524L361.429 168.524ZM365.446 168.622C366.102 168.644 366.771 168.668 367.451 168.696L367.532 166.698C366.847 166.67 366.173 166.645 365.512 166.623L365.446 168.622ZM369.51 168.787C370.151 168.817 370.801 168.85 371.46 168.885L371.567 166.888C370.904 166.853 370.25 166.82 369.605 166.789L369.51 168.787ZM373.465 168.999C374.142 169.04 374.828 169.083 375.523 169.128L375.653 167.133C374.955 167.087 374.265 167.043 373.584 167.003L373.465 168.999ZM377.479 169.262C378.136 169.308 378.8 169.357 379.471 169.408L379.622 167.413C378.948 167.362 378.281 167.313 377.62 167.267L377.479 169.262ZM381.505 169.567C382.165 169.621 382.832 169.676 383.504 169.733L383.675 167.741C382.999 167.683 382.33 167.627 381.666 167.574L381.505 169.567ZM385.478 169.907C386.142 169.967 386.812 170.028 387.487 170.092L387.675 168.101C386.997 168.037 386.325 167.975 385.658 167.915L385.478 169.907ZM389.529 170.289C390.179 170.354 390.833 170.42 391.493 170.487L391.698 168.498C391.035 168.43 390.378 168.364 389.725 168.299L389.529 170.289ZM393.477 170.696C394.143 170.767 394.813 170.84 395.488 170.915L395.709 168.927C395.031 168.852 394.358 168.778 393.69 168.707L393.477 170.696ZM397.518 171.144C398.168 171.218 398.822 171.295 399.48 171.373L399.715 169.387C399.055 169.308 398.399 169.232 397.746 169.157L397.518 171.144ZM401.464 171.612C402.13 171.693 402.799 171.777 403.471 171.861L403.721 169.877C403.046 169.792 402.375 169.709 401.707 169.627L401.464 171.612ZM405.496 172.12C406.147 172.205 406.801 172.291 407.458 172.379L407.722 170.396C407.063 170.308 406.407 170.222 405.754 170.137L405.496 172.12ZM409.438 172.646C410.101 172.737 410.767 172.83 411.437 172.924L411.715 170.943C411.044 170.849 410.375 170.756 409.71 170.665L409.438 172.646ZM413.452 173.211C414.107 173.305 414.764 173.401 415.424 173.498L415.717 171.52C415.054 171.422 414.395 171.326 413.738 171.231L413.452 173.211ZM417.398 173.793C418.058 173.893 418.721 173.994 419.386 174.097L419.692 172.121C419.025 172.018 418.36 171.916 417.697 171.816L417.398 173.793ZM421.389 174.41C422.05 174.515 422.713 174.621 423.378 174.728L423.697 172.754C423.03 172.646 422.364 172.54 421.701 172.435L421.389 174.41ZM425.344 175.049C426.001 175.158 426.661 175.268 427.322 175.379L427.654 173.407C426.991 173.295 426.329 173.185 425.67 173.076L425.344 175.049ZM429.312 175.718C429.977 175.832 430.643 175.948 431.312 176.065L431.658 174.095C430.987 173.977 430.318 173.861 429.65 173.746L429.312 175.718ZM433.275 176.413C433.93 176.53 434.586 176.648 435.243 176.768L435.602 174.8C434.942 174.68 434.284 174.561 433.627 174.444L433.275 176.413ZM437.22 177.132C437.881 177.255 438.543 177.379 439.206 177.504L439.578 175.539C438.913 175.413 438.248 175.289 437.586 175.166L437.22 177.132ZM441.189 177.883C441.841 178.009 442.494 178.136 443.148 178.264L443.534 176.302C442.877 176.173 442.222 176.046 441.568 175.919L441.189 177.883ZM445.114 178.654C445.771 178.785 446.428 178.918 447.087 179.052L447.486 177.092C446.825 176.958 446.165 176.824 445.506 176.693L445.114 178.654ZM449.067 179.458C449.721 179.594 450.377 179.731 451.034 179.869L451.447 177.912C450.787 177.773 450.129 177.636 449.472 177.5L449.067 179.458ZM452.991 180.285C453.643 180.425 454.297 180.566 454.952 180.709L455.378 178.755C454.721 178.612 454.065 178.47 453.41 178.329L452.991 180.285ZM456.918 181.141C457.574 181.287 458.231 181.434 458.889 181.582L459.329 179.631C458.669 179.482 458.009 179.335 457.351 179.189L456.918 181.141ZM460.845 182.027C461.495 182.176 462.145 182.326 462.797 182.478L463.251 180.53C462.597 180.378 461.944 180.227 461.292 180.077L460.845 182.027ZM464.751 182.937C465.403 183.092 466.056 183.248 466.709 183.405L467.177 181.46C466.522 181.303 465.867 181.146 465.212 180.991L464.751 182.937ZM468.669 183.881C469.317 184.039 469.966 184.2 470.616 184.361L471.099 182.42C470.447 182.258 469.795 182.097 469.144 181.938L468.669 183.881ZM472.561 184.849C473.209 185.013 473.858 185.178 474.507 185.345L475.005 183.408C474.353 183.24 473.702 183.075 473.051 182.91L472.561 184.849ZM476.454 185.849C477.103 186.019 477.753 186.19 478.402 186.362L478.915 184.429C478.263 184.256 477.611 184.084 476.959 183.914L476.454 185.849ZM480.34 186.88C480.986 187.054 481.631 187.229 482.277 187.406L482.805 185.477C482.157 185.3 481.509 185.124 480.861 184.949L480.34 186.88ZM484.213 187.941C484.858 188.12 485.503 188.301 486.148 188.483L486.692 186.559C486.045 186.376 485.397 186.194 484.749 186.014L484.213 187.941ZM488.083 189.035C488.726 189.219 489.369 189.405 490.011 189.593L490.572 187.673C489.926 187.485 489.281 187.298 488.635 187.112L488.083 189.035ZM491.938 190.16C492.58 190.35 493.221 190.542 493.862 190.735L494.439 188.82C493.795 188.626 493.151 188.433 492.506 188.242L491.938 190.16ZM495.784 191.318C496.424 191.514 497.064 191.712 497.703 191.91L498.297 190.001C497.655 189.801 497.013 189.603 496.37 189.406L495.784 191.318ZM499.621 192.512C500.26 192.713 500.898 192.917 501.535 193.121L502.147 191.217C501.506 191.012 500.865 190.807 500.224 190.605L499.621 192.512ZM503.446 193.74C504.082 193.948 504.718 194.157 505.353 194.367L505.982 192.469C505.344 192.257 504.706 192.047 504.067 191.839L503.446 193.74ZM507.255 195.003C507.89 195.217 508.525 195.433 509.159 195.65L509.807 193.758C509.17 193.54 508.532 193.323 507.893 193.108L507.255 195.003ZM511.059 196.306C511.692 196.527 512.323 196.748 512.954 196.971L513.621 195.086C512.987 194.862 512.353 194.639 511.717 194.418L511.059 196.306ZM514.842 197.645C515.471 197.872 516.099 198.099 516.725 198.329L517.412 196.45C516.782 196.22 516.152 195.991 515.52 195.764L514.842 197.645ZM518.614 199.025C519.243 199.259 519.87 199.495 520.497 199.732L521.204 197.861C520.574 197.623 519.943 197.386 519.311 197.151L518.614 199.025ZM522.372 200.447C522.996 200.687 523.619 200.929 524.24 201.172L524.969 199.309C524.344 199.065 523.718 198.822 523.09 198.581L522.372 200.447ZM526.1 201.906C526.725 202.155 527.348 202.405 527.97 202.657L528.721 200.803C528.095 200.55 527.468 200.298 526.839 200.048L526.1 201.906ZM529.832 203.418C530.451 203.673 531.069 203.93 531.685 204.188L532.458 202.344C531.839 202.084 531.217 201.826 530.594 201.569L529.832 203.418ZM533.528 204.968C534.141 205.23 534.753 205.494 535.364 205.759L536.161 203.925C535.547 203.658 534.931 203.393 534.313 203.129L533.528 204.968ZM537.211 206.569C537.824 206.841 538.436 207.114 539.047 207.389L539.869 205.566C539.254 205.289 538.638 205.014 538.02 204.74L537.211 206.569ZM540.871 208.22C541.477 208.498 542.082 208.778 542.684 209.06L543.531 207.248C542.925 206.964 542.316 206.682 541.706 206.402L540.871 208.22ZM544.494 209.914C545.102 210.204 545.707 210.496 546.311 210.789L547.185 208.99C546.577 208.695 545.967 208.401 545.354 208.109L544.494 209.914ZM548.115 211.674C548.714 211.971 549.31 212.27 549.905 212.57L550.807 210.785C550.208 210.482 549.606 210.181 549.003 209.882L548.115 211.674ZM551.681 213.476C552.277 213.784 552.87 214.093 553.461 214.403L554.392 212.633C553.796 212.32 553.198 212.008 552.597 211.699L551.681 213.476ZM555.241 215.349C555.831 215.666 556.419 215.985 557.004 216.305L557.966 214.552C557.375 214.228 556.782 213.906 556.187 213.587L555.241 215.349ZM558.751 217.273C559.331 217.598 559.908 217.924 560.482 218.252L561.475 216.516C560.895 216.185 560.313 215.855 559.728 215.528L558.751 217.273ZM562.229 219.262C562.81 219.601 563.387 219.942 563.961 220.285L564.987 218.569C564.407 218.222 563.824 217.878 563.239 217.535L562.229 219.262ZM565.674 221.321C566.242 221.668 566.806 222.017 567.367 222.367L568.428 220.672C567.861 220.317 567.29 219.965 566.717 219.614L565.674 221.321ZM569.056 223.436C569.624 223.799 570.188 224.165 570.749 224.532L571.845 222.86C571.279 222.488 570.708 222.119 570.135 221.752L569.056 223.436ZM572.42 225.641C572.973 226.013 573.523 226.387 574.069 226.763L575.203 225.115C574.651 224.735 574.095 224.357 573.535 223.981L572.42 225.641ZM575.695 227.896C576.246 228.286 576.793 228.677 577.336 229.071L578.51 227.451C577.96 227.053 577.406 226.657 576.848 226.263L575.695 227.896ZM578.955 230.26C579.49 230.658 580.022 231.059 580.549 231.462L581.764 229.874C581.23 229.465 580.692 229.059 580.149 228.656L578.955 230.26ZM582.117 232.678C582.643 233.092 583.165 233.509 583.683 233.928L584.941 232.373C584.416 231.948 583.887 231.526 583.353 231.106L582.117 232.678ZM585.237 235.204C585.75 235.632 586.259 236.062 586.762 236.494L588.065 234.977C587.554 234.538 587.038 234.101 586.517 233.667L585.237 235.204ZM588.258 237.799C588.757 238.241 589.251 238.685 589.74 239.132L591.089 237.656C590.593 237.202 590.091 236.75 589.584 236.302L588.258 237.799ZM591.213 240.501C591.699 240.96 592.179 241.421 592.654 241.885L594.052 240.455C593.569 239.983 593.08 239.514 592.587 239.047L591.213 240.501ZM594.061 243.285C594.528 243.757 594.989 244.232 595.444 244.71L596.892 243.33C596.428 242.844 595.959 242.36 595.484 241.879L594.061 243.285ZM596.817 246.177C597.269 246.669 597.714 247.163 598.153 247.66L599.652 246.336C599.204 245.83 598.75 245.326 598.29 244.824L596.817 246.177ZM599.452 249.16C599.881 249.666 600.304 250.174 600.72 250.685L602.271 249.423C601.846 248.901 601.414 248.382 600.977 247.866L599.452 249.16ZM601.969 252.253C602.379 252.779 602.782 253.307 603.178 253.838L604.781 252.643C604.377 252.1 603.965 251.56 603.547 251.024L601.969 252.253ZM604.344 255.441C604.728 255.981 605.106 256.525 605.475 257.071L607.132 255.95C606.753 255.39 606.367 254.835 605.974 254.282L604.344 255.441ZM606.576 258.739C606.935 259.298 607.287 259.86 607.631 260.425L609.339 259.385C608.987 258.806 608.626 258.23 608.258 257.657L606.576 258.739Z" fill="white"/>
<path d="M1 24C19.3333 6.83333 66.6 -17.2 109 24C151.4 65.2 113 94.5 88.5 104C57.5 116.833 7.7 149.8 56.5 179C105.3 208.2 159.167 186.167 180 171.5C184.667 163 187.1 145.4 159.5 143C125 140 132.353 173 143 179C153.647 185 182.5 198 214 194.5C239.2 191.7 256.5 178 262 171.5" stroke="white" stroke-width="2" stroke-dasharray="2 2"/>
</svg>
