<svg width="552" height="336" viewBox="0 0 552 336" fill="none" xmlns="http://www.w3.org/2000/svg">
<path d="M63.0783 92.4886L63.3801 93.4419L63.0783 92.4886ZM112.701 156.907L113.42 157.602L112.701 156.907ZM180 282.5L179.752 283.469L180 282.5ZM317 271.5L317.911 271.912L317 271.5ZM260.5 223.5L261.163 224.249L260.5 223.5ZM317 315.5L317.173 314.515L317 315.5ZM551.5 300.5L539.984 299.654L545.01 310.05L551.5 300.5ZM34.0733 0.290408C33.5791 0.781168 33.0908 1.27104 32.6084 1.75999L34.032 3.16468C34.5096 2.68063 34.9931 2.19559 35.4826 1.70959L34.0733 0.290408ZM29.784 4.6825C28.8387 5.68161 27.918 6.67663 27.0217 7.66736L28.5048 9.00916C29.391 8.02965 30.3015 7.04554 31.2368 6.05706L29.784 4.6825ZM24.3336 10.7096C23.4309 11.7564 22.5554 12.7981 21.7069 13.8344L23.2544 15.1014C24.0919 14.0785 24.9564 13.0499 25.8482 12.0158L24.3336 10.7096ZM19.1897 16.9945C18.337 18.0957 17.5149 19.1904 16.7231 20.2783L18.3401 21.4553C19.12 20.3837 19.9302 19.3048 20.771 18.219L19.1897 16.9945ZM14.3951 23.5842C13.6123 24.7347 12.8635 25.8771 12.1484 27.0111L13.8401 28.0779C14.5425 26.9641 15.2785 25.8411 16.0486 24.7093L14.3951 23.5842ZM10.0325 30.5093C9.3419 31.7022 8.68909 32.885 8.07337 34.0573L9.84398 34.9873C10.4466 33.8399 11.0862 32.6811 11.7634 31.5113L10.0325 30.5093ZM6.24594 37.7354C5.65272 39.0026 5.10375 40.2564 4.59818 41.4962L6.45011 42.2514C6.94257 41.0437 7.47796 39.8209 8.05728 38.5834L6.24594 37.7354ZM3.15783 45.3263C2.70407 46.6459 2.30086 47.9482 1.94715 49.2322L3.87533 49.7633C4.21765 48.5207 4.60847 47.2582 5.04914 45.9766L3.15783 45.3263ZM0.994239 53.2215C0.715408 54.6054 0.496358 55.9657 0.335667 57.3013L2.32135 57.5402C2.47553 56.2587 2.68607 54.9504 2.95484 53.6165L0.994239 53.2215ZM0.0208943 61.4243C-0.0228669 62.8366 0.00235225 64.2173 0.0946599 65.5647L2.08998 65.428C2.00235 64.1488 1.97816 62.8344 2.01993 61.4862L0.0208943 61.4243ZM0.602545 69.6827C0.853706 71.0722 1.18203 72.4197 1.58493 73.723L3.4957 73.1323C3.11718 71.9079 2.80779 70.6389 2.57065 69.3269L0.602545 69.6827ZM3.07154 77.6221C3.65745 78.8999 4.32326 80.1247 5.06557 81.2939L6.754 80.2219C6.06052 79.1296 5.43793 77.9845 4.88955 76.7885L3.07154 77.6221ZM7.54067 84.6578C8.43761 85.7165 9.40752 86.7155 10.4466 87.6524L11.7859 86.1671C10.8124 85.2893 9.90495 84.3545 9.06666 83.365L7.54067 84.6578ZM13.7153 90.2383C14.8419 91.0192 16.0285 91.7402 17.2716 92.3993L18.2085 90.6323C17.0333 90.0092 15.9145 89.3292 14.8547 88.5946L13.7153 90.2383ZM21.0423 94.1397C22.3036 94.642 23.6114 95.0887 24.9628 95.4782L25.5167 93.5564C24.2263 93.1845 22.9807 92.7589 21.7822 92.2816L21.0423 94.1397ZM28.9803 96.442C30.3037 96.699 31.6622 96.906 33.0537 97.062L33.2764 95.0744C31.9364 94.9242 30.6308 94.7252 29.3615 94.4787L28.9803 96.442ZM37.1529 97.3688C38.4947 97.4211 39.8631 97.4289 41.2565 97.3912L41.2024 95.3919C39.8518 95.4285 38.5275 95.4208 37.2309 95.3703L37.1529 97.3688ZM45.3499 97.155C46.6879 97.0378 48.0462 96.8805 49.4237 96.6825L49.139 94.7028C47.7973 94.8958 46.4757 95.0487 45.1754 95.1626L45.3499 97.155ZM53.4722 95.9925C54.7892 95.7337 56.1217 95.4387 57.4688 95.107L56.9906 93.165C55.6735 93.4893 54.3718 93.7775 53.0865 94.0301L53.4722 95.9925ZM61.3986 94.0462C62.056 93.8534 62.7165 93.652 63.3801 93.4419L62.7765 91.5352C62.1264 91.741 61.4793 91.9382 60.8356 92.1271L61.3986 94.0462ZM63.3801 93.4419C64.005 93.2441 64.6289 93.0514 65.2516 92.8637L64.6743 90.9488C64.0428 91.1391 63.4102 91.3346 62.7765 91.5352L63.3801 93.4419ZM68.9794 91.7958C70.2439 91.4526 71.5023 91.1304 72.7536 90.8292L72.2855 88.8847C71.0154 89.1905 69.7383 89.5174 68.4555 89.8656L68.9794 91.7958ZM76.5511 89.9743C77.8307 89.7064 79.1014 89.4608 80.3621 89.2375L80.0132 87.2681C78.7319 87.4951 77.4408 87.7446 76.1412 88.0168L76.5511 89.9743ZM84.1835 88.6238C85.4845 88.4368 86.7729 88.2742 88.0473 88.1359L87.8314 86.1475C86.5336 86.2884 85.2223 86.4539 83.8989 86.6442L84.1835 88.6238ZM91.9178 87.7871C93.2263 87.6938 94.5176 87.6273 95.7901 87.5872L95.7272 85.5882C94.4276 85.6291 93.1098 85.6971 91.7756 85.7922L91.9178 87.7871ZM99.6593 87.5479C100.97 87.5632 102.257 87.6085 103.519 87.6833L103.638 85.6868C102.343 85.61 101.024 85.5637 99.6827 85.548L99.6593 87.5479ZM107.362 88.0114C108.667 88.1583 109.94 88.3396 111.178 88.5547L111.52 86.5843C110.241 86.362 108.928 86.1752 107.586 86.0239L107.362 88.0114ZM114.945 89.3404C116.22 89.6534 117.449 90.0065 118.631 90.3993L119.261 88.5014C118.027 88.0909 116.746 87.7231 115.422 87.3981L114.945 89.3404ZM122.203 91.7728C123.4 92.3013 124.532 92.8776 125.597 93.5009L126.607 91.7749C125.473 91.1109 124.273 90.5004 123.011 89.9433L122.203 91.7728ZM128.726 95.6214C129.734 96.4124 130.655 97.2586 131.484 98.1589L132.955 96.8034C132.049 95.82 131.048 94.9017 129.962 94.0484L128.726 95.6214ZM133.755 101.112C134.415 102.158 134.975 103.263 135.429 104.428L137.292 103.703C136.792 102.417 136.174 101.197 135.446 100.044L133.755 101.112ZM136.447 108.007C136.671 109.196 136.799 110.439 136.824 111.738L138.824 111.698C138.796 110.294 138.658 108.94 138.413 107.637L136.447 108.007ZM136.625 115.515C136.478 116.722 136.252 117.969 135.941 119.258L137.885 119.727C138.213 118.368 138.454 117.044 138.61 115.757L136.625 115.515ZM134.866 122.918C134.468 124.075 134.007 125.262 133.48 126.478L135.316 127.273C135.862 126.013 136.342 124.777 136.758 123.568L134.866 122.918ZM131.841 129.941C131.274 131.047 130.656 132.174 129.986 133.322L131.713 134.331C132.401 133.152 133.036 131.993 133.62 130.854L131.841 129.941ZM127.94 136.639C127.259 137.689 126.536 138.755 125.77 139.838L127.402 140.993C128.183 139.889 128.922 138.801 129.618 137.728L127.94 136.639ZM123.486 142.945C122.712 143.961 121.901 144.991 121.053 146.034L122.605 147.295C123.466 146.236 124.29 145.19 125.077 144.157L123.486 142.945ZM118.588 148.982C117.757 149.948 116.896 150.925 116.002 151.913L117.486 153.255C118.39 152.254 119.263 151.265 120.104 150.286L118.588 148.982ZM113.365 154.765C112.911 155.245 112.45 155.728 111.982 156.213L113.42 157.602C113.894 157.112 114.36 156.624 114.819 156.139L113.365 154.765ZM111.982 156.213C111.498 156.713 111.025 157.213 110.561 157.713L112.028 159.073C112.482 158.583 112.946 158.093 113.42 157.602L111.982 156.213ZM107.895 160.712C107.003 161.76 106.153 162.807 105.344 163.853L106.927 165.076C107.716 164.056 108.546 163.033 109.418 162.008L107.895 160.712ZM102.985 167.066C102.193 168.206 101.448 169.344 100.75 170.481L102.454 171.528C103.132 170.424 103.856 169.317 104.627 168.208L102.985 167.066ZM98.7471 173.971C98.1015 175.181 97.5076 176.389 96.9638 177.595L98.7869 178.417C99.3122 177.253 99.8866 176.085 100.512 174.913L98.7471 173.971ZM95.4225 181.363C94.9499 182.649 94.5333 183.932 94.1709 185.211L96.0952 185.757C96.4436 184.527 96.8445 183.292 97.2998 182.052L95.4225 181.363ZM93.2236 189.141C92.9549 190.49 92.7454 191.833 92.5928 193.171L94.5799 193.398C94.7262 192.115 94.9272 190.826 95.1851 189.531L93.2236 189.141ZM92.3013 197.226C92.2608 198.587 92.2779 199.94 92.3502 201.286L94.3473 201.178C94.278 199.888 94.2616 198.59 94.3004 197.285L92.3013 197.226ZM92.7341 205.328C92.9169 206.671 93.1535 208.004 93.4409 209.327L95.3953 208.903C95.1187 207.63 94.8914 206.348 94.7158 205.058L92.7341 205.328ZM94.4499 213.254C94.8329 214.544 95.2633 215.825 95.7384 217.093L97.6114 216.392C97.1521 215.165 96.7367 213.93 96.3673 212.685L94.4499 213.254ZM97.2824 220.837C97.8341 222.061 98.4264 223.274 99.0568 224.475L100.828 223.545C100.215 222.379 99.6405 221.202 99.1059 220.015L97.2824 220.837ZM101.03 227.99C101.716 229.138 102.436 230.273 103.188 231.396L104.85 230.284C104.117 229.188 103.415 228.081 102.747 226.964L101.03 227.99ZM105.511 234.694C106.306 235.769 107.129 236.831 107.979 237.88L109.533 236.622C108.702 235.594 107.896 234.555 107.119 233.504L105.511 234.694ZM110.569 240.951C111.45 241.954 112.355 242.945 113.28 243.922L114.732 242.547C113.824 241.587 112.936 240.615 112.072 239.631L110.569 240.951ZM116.097 246.794C117.048 247.73 118.017 248.653 119.003 249.563L120.359 248.092C119.388 247.198 118.435 246.29 117.5 245.369L116.097 246.794ZM121.995 252.238C123.005 253.113 124.03 253.975 125.068 254.822L126.333 253.273C125.31 252.438 124.3 251.589 123.305 250.726L121.995 252.238ZM128.21 257.316C129.269 258.133 130.339 258.935 131.419 259.722L132.598 258.107C131.532 257.33 130.476 256.538 129.431 255.732L128.21 257.316ZM134.69 262.043C135.791 262.804 136.899 263.548 138.013 264.277L139.108 262.603C138.008 261.884 136.913 261.148 135.826 260.398L134.69 262.043ZM141.399 266.432C142.541 267.14 143.687 267.83 144.834 268.503L145.846 266.777C144.712 266.113 143.58 265.431 142.452 264.732L141.399 266.432ZM148.311 270.485C149.489 271.138 150.666 271.771 151.84 272.385L152.767 270.613C151.607 270.006 150.444 269.38 149.281 268.736L148.311 270.485ZM155.423 274.202C156.636 274.798 157.844 275.373 159.045 275.925L159.881 274.108C158.695 273.563 157.503 272.996 156.306 272.407L155.423 274.202ZM162.702 277.55C163.948 278.083 165.183 278.592 166.405 279.075L167.14 277.215C165.936 276.739 164.718 276.238 163.489 275.711L162.702 277.55ZM170.173 280.498C171.463 280.962 172.734 281.395 173.984 281.797L174.596 279.893C173.369 279.499 172.119 279.073 170.851 278.616L170.173 280.498ZM177.84 282.957C178.485 283.137 179.122 283.308 179.752 283.469L180.248 281.531C179.632 281.374 179.009 281.207 178.377 281.031L177.84 282.957ZM179.752 283.469C180.421 283.64 181.087 283.809 181.752 283.978L182.243 282.039C181.58 281.871 180.915 281.702 180.248 281.531L179.752 283.469ZM185.719 284.972C187.058 285.304 188.388 285.63 189.711 285.95L190.182 284.006C188.863 283.687 187.536 283.362 186.201 283.031L185.719 284.972ZM193.688 286.901C195.029 287.217 196.362 287.528 197.687 287.832L198.134 285.882C196.814 285.579 195.485 285.27 194.147 284.954L193.688 286.901ZM201.689 288.736C203.028 289.034 204.358 289.324 205.679 289.608L206.099 287.653C204.783 287.37 203.458 287.08 202.124 286.784L201.689 288.736ZM209.707 290.458C211.057 290.737 212.397 291.008 213.727 291.271L214.116 289.31C212.791 289.047 211.457 288.777 210.112 288.499L209.707 290.458ZM217.738 292.047C219.1 292.304 220.45 292.552 221.79 292.792L222.142 290.823C220.809 290.585 219.464 290.338 218.109 290.082L217.738 292.047ZM225.836 293.492C227.194 293.72 228.541 293.938 229.876 294.146L230.184 292.17C228.857 291.963 227.518 291.746 226.166 291.52L225.836 293.492ZM233.941 294.754C235.314 294.95 236.673 295.135 238.019 295.309L238.275 293.325C236.938 293.153 235.588 292.969 234.224 292.774L233.941 294.754ZM242.095 295.804C243.469 295.96 244.828 296.104 246.171 296.234L246.365 294.244C245.032 294.114 243.684 293.972 242.321 293.817L242.095 295.804ZM250.267 296.595C251.656 296.704 253.027 296.798 254.38 296.877L254.497 294.881C253.157 294.803 251.799 294.709 250.424 294.601L250.267 296.595ZM258.495 297.072C259.887 297.121 261.259 297.154 262.612 297.168L262.633 295.168C261.298 295.154 259.942 295.122 258.566 295.073L258.495 297.072ZM266.73 297.155C268.127 297.13 269.5 297.084 270.85 297.018L270.751 295.02C269.423 295.086 268.071 295.131 266.695 295.155L266.73 297.155ZM274.968 296.741C276.365 296.621 277.735 296.476 279.078 296.305L278.825 294.321C277.511 294.488 276.168 294.63 274.797 294.748L274.968 296.741ZM283.173 295.686C284.561 295.443 285.916 295.167 287.239 294.86L286.786 292.912C285.501 293.211 284.181 293.479 282.826 293.717L283.173 295.686ZM291.257 293.797C292.612 293.391 293.927 292.947 295.202 292.464L294.493 290.594C293.265 291.06 291.995 291.488 290.684 291.881L291.257 293.797ZM299.039 290.829C300.315 290.22 301.544 289.565 302.724 288.861L301.699 287.143C300.574 287.814 299.401 288.441 298.178 289.023L299.039 290.829ZM306.215 286.53C307.345 285.686 308.42 284.788 309.438 283.834L308.071 282.374C307.108 283.276 306.09 284.127 305.019 284.927L306.215 286.53ZM312.337 280.788C313.238 279.724 314.081 278.604 314.864 277.427L313.2 276.319C312.458 277.432 311.662 278.491 310.811 279.496L312.337 280.788ZM316.991 273.811C317.312 273.192 317.619 272.559 317.911 271.912L316.089 271.088C315.811 271.703 315.519 272.304 315.215 272.892L316.991 273.811ZM317.911 271.912C318.204 271.265 318.474 270.615 318.721 269.964L316.852 269.254C316.619 269.866 316.365 270.478 316.089 271.088L317.911 271.912ZM319.959 265.961C320.291 264.584 320.529 263.204 320.679 261.826L318.691 261.609C318.55 262.904 318.327 264.2 318.015 265.493L319.959 265.961ZM320.868 257.634C320.844 256.232 320.733 254.838 320.541 253.457L318.56 253.731C318.741 255.036 318.845 256.35 318.868 257.668L320.868 257.634ZM319.731 249.353C319.386 248.006 318.967 246.676 318.481 245.369L316.606 246.066C317.069 247.31 317.467 248.572 317.794 249.849L319.731 249.353ZM316.834 241.537C316.225 240.293 315.556 239.074 314.832 237.885L313.124 238.925C313.817 240.063 314.456 241.228 315.037 242.416L316.834 241.537ZM312.514 234.432C311.692 233.317 310.822 232.236 309.908 231.193L308.404 232.511C309.281 233.512 310.116 234.549 310.903 235.618L312.514 234.432ZM307.043 228.184C306.044 227.219 305.007 226.297 303.937 225.422L302.671 226.971C303.699 227.811 304.694 228.696 305.653 229.622L307.043 228.184ZM300.609 222.93C299.459 222.143 298.28 221.409 297.078 220.734L296.098 222.477C297.248 223.123 298.377 223.826 299.48 224.58L300.609 222.93ZM293.353 218.864C292.072 218.296 290.771 217.794 289.457 217.365L288.836 219.266C290.083 219.673 291.321 220.15 292.542 220.692L293.353 218.864ZM285.42 216.288C284.04 216.003 282.654 215.801 281.266 215.688L281.105 217.682C282.407 217.787 283.712 217.977 285.014 218.246L285.42 216.288ZM277.062 215.63C275.66 215.707 274.264 215.883 272.883 216.165L273.282 218.124C274.565 217.863 275.863 217.699 277.172 217.627L277.062 215.63ZM268.824 217.321C267.52 217.804 266.237 218.391 264.984 219.09L265.958 220.837C267.121 220.189 268.31 219.644 269.518 219.196L268.824 217.321ZM261.474 221.401C260.92 221.826 260.374 222.276 259.837 222.751L261.163 224.249C261.665 223.804 262.175 223.384 262.692 222.987L261.474 221.401ZM259.837 222.751C259.315 223.213 258.807 223.678 258.313 224.146L259.688 225.598C260.165 225.146 260.657 224.697 261.163 224.249L259.837 222.751ZM255.471 227.038C254.535 228.065 253.664 229.102 252.856 230.15L254.439 231.371C255.213 230.369 256.048 229.373 256.949 228.386L255.471 227.038ZM250.514 233.488C249.768 234.665 249.097 235.852 248.5 237.048L250.289 237.942C250.855 236.808 251.492 235.68 252.203 234.559L250.514 233.488ZM246.869 240.81C246.389 242.113 245.991 243.422 245.673 244.737L247.616 245.208C247.916 243.968 248.292 242.733 248.746 241.502L246.869 240.81ZM244.944 248.778C244.78 250.143 244.699 251.509 244.696 252.875L246.696 252.879C246.699 251.59 246.776 250.302 246.93 249.016L244.944 248.778ZM244.92 256.969C245.069 258.32 245.293 259.667 245.586 261.008L247.54 260.58C247.261 259.306 247.049 258.028 246.908 256.749L244.92 256.969ZM246.656 264.953C247.07 266.236 247.546 267.511 248.082 268.776L249.924 267.996C249.41 266.783 248.954 265.563 248.559 264.339L246.656 264.953ZM249.821 272.458C250.44 273.646 251.111 274.824 251.83 275.99L253.532 274.94C252.838 273.814 252.191 272.677 251.594 271.533L249.821 272.458ZM254.075 279.369C254.85 280.458 255.666 281.534 256.523 282.596L258.08 281.341C257.248 280.309 256.455 279.265 255.704 278.21L254.075 279.369ZM259.149 285.673C260.043 286.664 260.972 287.641 261.932 288.603L263.347 287.189C262.41 286.251 261.505 285.299 260.634 284.333L259.149 285.673ZM264.855 291.389C265.843 292.287 266.859 293.17 267.902 294.035L269.18 292.496C268.159 291.65 267.166 290.787 266.201 289.909L264.855 291.389ZM271.062 296.545C272.126 297.353 273.214 298.145 274.323 298.919L275.467 297.278C274.38 296.52 273.314 295.744 272.272 294.952L271.062 296.545ZM277.677 301.16C278.804 301.881 279.95 302.584 281.115 303.268L282.127 301.543C280.985 300.872 279.86 300.182 278.755 299.475L277.677 301.16ZM284.627 305.242C285.805 305.875 286.999 306.489 288.208 307.083L289.09 305.287C287.903 304.705 286.731 304.102 285.574 303.48L284.627 305.242ZM291.856 308.791C293.08 309.337 294.316 309.862 295.565 310.365L296.312 308.51C295.086 308.016 293.872 307.5 292.671 306.964L291.856 308.791ZM299.329 311.802C300.591 312.257 301.863 312.69 303.144 313.099L303.753 311.194C302.495 310.792 301.247 310.367 300.008 309.92L299.329 311.802ZM307.004 314.253C308.298 314.613 309.599 314.949 310.906 315.26L311.369 313.314C310.087 313.009 308.81 312.68 307.541 312.326L307.004 314.253ZM314.845 316.116C315.505 316.245 316.165 316.368 316.827 316.485L317.173 314.515C316.525 314.401 315.878 314.28 315.232 314.153L314.845 316.116ZM316.827 316.485C317.475 316.599 318.125 316.713 318.777 316.826L319.12 314.856C318.469 314.743 317.82 314.629 317.173 314.515L316.827 316.485ZM322.71 317.5C324.011 317.721 325.319 317.939 326.633 318.155L326.957 316.181C325.646 315.966 324.341 315.748 323.043 315.528L322.71 317.5ZM330.577 318.793C331.88 319.001 333.189 319.206 334.504 319.409L334.809 317.433C333.498 317.23 332.192 317.025 330.892 316.818L330.577 318.793ZM338.449 320.008C339.757 320.203 341.07 320.396 342.389 320.585L342.673 318.606C341.358 318.416 340.049 318.225 338.744 318.03L338.449 320.008ZM346.335 321.142C347.648 321.324 348.965 321.502 350.286 321.678L350.55 319.695C349.232 319.52 347.918 319.342 346.609 319.161L346.335 321.142ZM354.236 322.19C355.552 322.358 356.872 322.521 358.197 322.682L358.437 320.696C357.117 320.536 355.8 320.373 354.488 320.206L354.236 322.19ZM362.149 323.148C363.469 323.3 364.792 323.448 366.118 323.593L366.334 321.604C365.012 321.46 363.693 321.313 362.378 321.161L362.149 323.148ZM370.075 324.011C371.396 324.146 372.72 324.278 374.046 324.405L374.238 322.414C372.915 322.287 371.595 322.156 370.279 322.021L370.075 324.011ZM378.012 324.773C379.334 324.891 380.659 325.005 381.986 325.115L382.151 323.122C380.828 323.012 379.508 322.899 378.19 322.781L378.012 324.773ZM385.959 325.429C387.282 325.529 388.608 325.625 389.936 325.716L390.073 323.721C388.75 323.63 387.428 323.535 386.109 323.435L385.959 325.429ZM393.914 325.974C395.24 326.055 396.567 326.132 397.895 326.203L398.003 324.206C396.679 324.135 395.357 324.059 394.037 323.978L393.914 325.974ZM401.878 326.402C403.205 326.463 404.533 326.52 405.862 326.571L405.938 324.572C404.614 324.521 403.292 324.465 401.97 324.404L401.878 326.402ZM409.848 326.707C411.176 326.748 412.504 326.782 413.834 326.812L413.878 324.812C412.554 324.783 411.231 324.748 409.909 324.708L409.848 326.707ZM417.823 326.883C419.151 326.901 420.48 326.914 421.81 326.92L421.82 324.92C420.496 324.914 419.173 324.901 417.85 324.883L417.823 326.883ZM425.8 326.923C427.128 326.918 428.458 326.906 429.788 326.889L429.762 324.889C428.438 324.907 427.115 324.918 425.792 324.923L425.8 326.923ZM433.777 326.819C435.106 326.79 436.435 326.754 437.764 326.712L437.701 324.713C436.378 324.755 435.055 324.79 433.732 324.82L433.777 326.819ZM441.751 326.565C443.08 326.51 444.409 326.448 445.737 326.38L445.634 324.382C444.312 324.45 442.99 324.512 441.668 324.567L441.751 326.565ZM449.72 326.153C451.048 326.071 452.375 325.982 453.702 325.885L453.557 323.89C452.238 323.986 450.917 324.075 449.596 324.157L449.72 326.153ZM457.68 325.575C459.006 325.464 460.331 325.346 461.656 325.22L461.467 323.229C460.15 323.354 458.832 323.471 457.513 323.581L457.68 325.575ZM465.626 324.821C466.95 324.68 468.272 324.532 469.593 324.376L469.359 322.389C468.046 322.545 466.731 322.692 465.415 322.832L465.626 324.821ZM473.554 323.883C474.875 323.711 476.193 323.531 477.51 323.342L477.227 321.363C475.918 321.55 474.608 321.729 473.295 321.9L473.554 323.883ZM481.458 322.752C482.774 322.547 484.088 322.333 485.399 322.111L485.065 320.139C483.762 320.36 482.457 320.572 481.15 320.776L481.458 322.752ZM489.332 321.418C490.642 321.179 491.95 320.93 493.255 320.672L492.868 318.71C491.572 318.966 490.273 319.213 488.972 319.451L489.332 321.418ZM497.168 319.872C498.471 319.596 499.771 319.311 501.068 319.016L500.625 317.066C499.338 317.358 498.047 317.641 496.753 317.915L497.168 319.872ZM504.958 318.103C506.252 317.789 507.544 317.465 508.831 317.132L508.331 315.196C507.052 315.526 505.771 315.847 504.486 316.159L504.958 318.103ZM512.693 316.101C513.977 315.747 515.258 315.384 516.535 315.01L515.973 313.09C514.706 313.461 513.436 313.822 512.162 314.173L512.693 316.101ZM520.362 313.856C521.634 313.461 522.903 313.056 524.167 312.641L523.542 310.741C522.289 311.153 521.031 311.555 519.769 311.946L520.362 313.856ZM527.955 311.359C529.213 310.922 530.467 310.473 531.717 310.014L531.027 308.137C529.789 308.592 528.545 309.036 527.298 309.47L527.955 311.359ZM535.458 308.601C536.7 308.119 537.938 307.626 539.171 307.122L538.414 305.271C537.192 305.77 535.966 306.259 534.734 306.737L535.458 308.601ZM542.858 305.573C544.082 305.046 545.3 304.507 546.514 303.956L545.688 302.135C544.486 302.68 543.278 303.214 542.066 303.737L542.858 305.573Z" fill="white"/>
<path d="M170.677 277.306L162.384 260.3L226.719 289.341L188.361 309.693L182.668 298.867L158.242 299.004L170.677 277.306Z" fill="white"/>
<path d="M170.677 277.306L162.384 260.3L226.719 289.341M170.677 277.306C165.821 285.78 163.098 290.53 158.242 299.004M170.677 277.306L226.719 289.341M158.242 299.004L182.668 298.867M158.242 299.004L167.941 294.002L177.64 289.001M177.64 289.001L226.719 289.341M177.64 289.001L182.668 298.867M226.719 289.341L188.361 309.693L182.668 298.867" stroke="#D9D9D9"/>
<path d="M114.864 330.28C114.917 330.557 115.008 330.963 115.136 331.496C115.168 331.624 115.2 331.773 115.232 331.944C115.275 332.125 115.296 332.237 115.296 332.28C115.296 332.397 115.227 332.504 115.088 332.6C114.96 332.707 114.816 332.76 114.656 332.76C114.56 332.76 114.464 332.664 114.368 332.472C114.272 332.291 114.203 332.056 114.16 331.768C113.968 330.648 113.797 328.915 113.648 326.568L113.424 323.16C112.592 323.992 111.733 324.696 110.848 325.272C110.613 325.421 110.448 325.496 110.352 325.496C110.245 325.496 110.16 325.464 110.096 325.4C110.032 325.325 110 325.256 110 325.192C110 325.053 110.123 324.904 110.368 324.744C110.912 324.392 111.397 324.019 111.824 323.624C112.261 323.229 112.699 322.808 113.136 322.36L113.36 322.136V322.12V321.88V321.72C113.36 321.645 113.376 321.597 113.408 321.576C113.429 321.555 113.451 321.544 113.472 321.544C113.536 321.512 113.611 321.496 113.696 321.496C113.909 321.496 114.08 321.528 114.208 321.592C114.336 321.656 114.4 321.752 114.4 321.88C114.4 322.008 114.336 322.157 114.208 322.328C114.261 322.584 114.293 322.84 114.304 323.096C114.325 323.725 114.405 324.941 114.544 326.744C114.683 328.536 114.789 329.715 114.864 330.28ZM127.753 323.928C127.753 324.173 127.694 324.707 127.577 325.528C127.449 326.467 127.379 326.995 127.369 327.112C127.23 328.424 127.129 329.427 127.065 330.12C127.011 330.803 126.985 331.421 126.985 331.976C126.985 332.435 127.017 332.797 127.081 333.064C127.155 333.331 127.23 333.539 127.305 333.688C127.39 333.848 127.433 333.944 127.433 333.976C127.433 334.072 127.347 334.157 127.177 334.232C127.006 334.307 126.83 334.344 126.649 334.344C126.51 334.344 126.398 334.157 126.313 333.784C126.238 333.411 126.201 332.829 126.201 332.04C126.201 331.443 126.259 330.637 126.377 329.624L126.617 327.416C126.329 327.971 125.971 328.504 125.545 329.016C125.129 329.517 124.697 329.768 124.249 329.768C123.833 329.768 123.459 329.405 123.129 328.68C122.798 327.955 122.537 327.133 122.345 326.216C122.163 325.299 122.073 324.627 122.073 324.2C122.073 323.933 122.153 323.8 122.313 323.8C122.547 323.8 122.697 324.019 122.761 324.456C123.166 327.421 123.731 328.904 124.457 328.904C124.745 328.904 124.995 328.792 125.209 328.568C125.433 328.333 125.694 327.976 125.993 327.496C126.131 327.272 126.281 326.973 126.441 326.6C126.601 326.227 126.723 325.917 126.809 325.672L126.921 324.056C126.942 323.811 126.974 323.64 127.017 323.544C127.059 323.437 127.145 323.384 127.273 323.384C127.379 323.384 127.486 323.448 127.593 323.576C127.699 323.693 127.753 323.811 127.753 323.928ZM135.302 326.92C135.376 326.92 135.414 327 135.414 327.16C135.414 327.352 135.27 327.773 134.982 328.424C134.704 329.075 134.278 329.677 133.702 330.232C133.136 330.787 132.438 331.064 131.606 331.064C130.923 331.064 130.352 330.851 129.894 330.424C129.435 329.997 129.206 329.341 129.206 328.456C129.206 327.624 129.398 326.803 129.782 325.992C130.166 325.171 130.667 324.504 131.286 323.992C131.904 323.469 132.544 323.208 133.206 323.208C133.6 323.208 133.931 323.299 134.198 323.48C134.475 323.651 134.614 323.901 134.614 324.232C134.614 324.605 134.4 324.968 133.974 325.32C133.558 325.672 133.014 325.981 132.342 326.248C131.67 326.515 130.976 326.707 130.262 326.824C130.134 327.315 130.07 327.795 130.07 328.264C130.07 328.883 130.214 329.363 130.502 329.704C130.8 330.045 131.222 330.216 131.766 330.216C132.587 330.216 133.254 329.923 133.766 329.336C134.278 328.749 134.704 328.088 135.046 327.352C135.067 327.309 135.104 327.229 135.158 327.112C135.211 326.984 135.259 326.92 135.302 326.92ZM133.894 324.408C133.894 324.237 133.803 324.104 133.622 324.008C133.451 323.912 133.248 323.864 133.014 323.864C132.608 323.864 132.219 323.997 131.846 324.264C131.472 324.531 131.158 324.851 130.902 325.224C130.656 325.597 130.496 325.928 130.422 326.216C130.912 326.163 131.43 326.024 131.974 325.8C132.518 325.576 132.971 325.331 133.334 325.064C133.707 324.797 133.894 324.579 133.894 324.408ZM143.299 329.976C143.31 330.051 143.353 330.131 143.427 330.216C143.502 330.291 143.539 330.355 143.539 330.408C143.539 330.536 143.486 330.685 143.379 330.856C143.273 331.016 143.166 331.096 143.059 331.096C142.878 331.096 142.739 330.984 142.643 330.76C142.547 330.536 142.499 330.275 142.499 329.976C142.499 329.72 142.515 328.952 142.547 327.672L142.563 327.064C142.563 326.819 142.499 326.643 142.371 326.536C141.891 327.347 141.443 328.051 141.027 328.648C140.611 329.245 140.083 329.811 139.443 330.344C138.803 330.867 138.131 331.128 137.427 331.128C137.086 331.128 136.819 331.021 136.627 330.808C136.446 330.595 136.355 330.317 136.355 329.976C136.355 329.549 136.547 328.968 136.931 328.232C137.315 327.485 137.806 326.733 138.403 325.976C139.001 325.208 139.598 324.579 140.195 324.088C140.59 323.768 140.905 323.555 141.139 323.448C141.374 323.331 141.582 323.272 141.763 323.272C141.934 323.272 142.11 323.325 142.291 323.432C142.473 323.539 142.627 323.688 142.755 323.88C142.883 324.072 142.947 324.291 142.947 324.536C142.947 324.867 142.857 325.181 142.675 325.48L142.947 325.4C143.065 325.4 143.134 325.544 143.155 325.832C143.166 326.003 143.177 326.349 143.187 326.872C143.209 327.395 143.225 327.827 143.235 328.168C143.246 328.52 143.257 328.861 143.267 329.192C143.278 329.523 143.289 329.784 143.299 329.976ZM137.651 330.264C138.227 330.264 138.782 330.051 139.315 329.624C139.849 329.197 140.323 328.691 140.739 328.104C141.166 327.507 141.635 326.776 142.147 325.912C142.275 325.592 142.339 325.245 142.339 324.872C142.339 324.648 142.27 324.456 142.131 324.296C142.003 324.125 141.827 324.04 141.603 324.04C141.337 324.04 140.995 324.221 140.579 324.584C140.099 324.989 139.593 325.533 139.059 326.216C138.526 326.888 138.083 327.555 137.731 328.216C137.379 328.877 137.203 329.4 137.203 329.784C137.203 330.104 137.353 330.264 137.651 330.264ZM150.632 324.264C150.632 324.36 150.563 324.472 150.424 324.6C150.296 324.717 150.184 324.776 150.088 324.776C150.013 324.776 149.939 324.744 149.864 324.68C149.8 324.616 149.725 324.525 149.64 324.408C149.565 324.301 149.464 324.211 149.336 324.136C149.219 324.061 149.096 324.024 148.968 324.024C148.659 324.024 148.243 324.435 147.72 325.256C147.197 326.067 146.685 327.091 146.184 328.328C146.195 328.573 146.211 328.883 146.232 329.256C146.264 329.629 146.285 329.907 146.296 330.088L146.344 330.728C146.344 330.877 146.312 331.005 146.248 331.112C146.184 331.229 146.067 331.288 145.896 331.288C145.715 331.288 145.597 331.048 145.544 330.568C145.491 330.077 145.459 329.368 145.448 328.44C145.437 328.205 145.427 327.869 145.416 327.432C145.416 326.995 145.405 326.472 145.384 325.864C145.352 324.947 145.336 324.291 145.336 323.896C145.336 323.651 145.485 323.528 145.784 323.528C145.965 323.528 146.072 323.608 146.104 323.768C146.147 323.917 146.168 324.211 146.168 324.648V327.192C146.488 326.371 146.835 325.661 147.208 325.064C147.581 324.467 147.944 324.013 148.296 323.704C148.659 323.384 148.979 323.224 149.256 323.224C149.491 323.224 149.715 323.277 149.928 323.384C150.141 323.491 150.312 323.629 150.44 323.8C150.568 323.96 150.632 324.115 150.632 324.264ZM160.507 331.416C159.995 331.747 159.616 331.976 159.371 332.104C159.211 332.179 159.067 332.237 158.939 332.28C158.822 332.333 158.72 332.36 158.635 332.36C158.486 332.36 158.363 332.296 158.267 332.168C158.171 332.04 158.123 331.917 158.123 331.8C158.123 331.64 158.219 331.539 158.411 331.496L158.747 331.4C159.11 331.283 159.414 331.165 159.659 331.048C159.915 330.941 160.235 330.765 160.619 330.52C161.344 330.051 161.878 329.555 162.219 329.032C162.56 328.499 162.731 327.928 162.731 327.32C162.731 326.893 162.635 326.595 162.443 326.424C162.262 326.253 161.984 326.168 161.611 326.168C161.174 326.168 160.704 326.232 160.203 326.36C159.702 326.488 159.126 326.659 158.475 326.872C157.984 327.021 157.707 327.107 157.643 327.128C157.568 327.149 157.483 327.192 157.387 327.256C157.291 327.32 157.206 327.373 157.131 327.416C157.035 327.48 156.95 327.512 156.875 327.512C156.811 327.512 156.758 327.507 156.715 327.496C156.523 327.464 156.427 327.336 156.427 327.112C156.427 327.08 156.475 326.813 156.571 326.312C156.71 325.587 156.822 324.963 156.907 324.44C156.992 323.917 157.035 323.48 157.035 323.128C156.96 323.032 156.923 322.92 156.923 322.792C156.923 322.6 157.11 322.403 157.483 322.2C157.867 321.987 158.47 321.747 159.291 321.48C159.92 321.267 160.582 321.096 161.275 320.968C161.979 320.829 162.619 320.76 163.195 320.76C163.28 320.76 163.35 320.787 163.403 320.84C163.467 320.883 163.499 320.941 163.499 321.016C163.499 321.197 163.403 321.304 163.211 321.336C161.92 321.56 160.875 321.789 160.075 322.024C159.542 322.173 159.126 322.312 158.827 322.44C158.528 322.568 158.214 322.728 157.883 322.92C157.883 323.571 157.707 324.739 157.355 326.424C157.355 326.413 157.622 326.317 158.155 326.136C158.699 325.955 159.302 325.789 159.963 325.64C160.635 325.491 161.259 325.416 161.835 325.416C162.422 325.416 162.864 325.565 163.163 325.864C163.462 326.163 163.611 326.579 163.611 327.112C163.611 327.88 163.387 328.605 162.939 329.288C162.491 329.96 161.835 330.573 160.971 331.128L160.507 331.416ZM179.896 330.84C179.896 330.968 179.854 331.075 179.768 331.16C179.683 331.256 179.571 331.304 179.432 331.304C179.24 331.304 179.144 331.208 179.144 331.016C179.144 328.861 179.075 327.213 178.936 326.072C178.798 324.92 178.558 324.344 178.216 324.344C177.64 324.344 176.798 326.355 175.688 330.376V330.392C175.688 330.52 175.646 330.632 175.56 330.728C175.475 330.813 175.363 330.856 175.224 330.856C175.032 330.856 174.936 330.76 174.936 330.568C174.936 330.141 174.958 329.48 175 328.584C175.043 327.581 175.064 326.792 175.064 326.216C175.064 325.416 175.038 324.851 174.984 324.52C174.942 324.179 174.84 324.008 174.68 324.008C174.318 324.008 173.859 324.675 173.304 326.008C172.75 327.331 172.168 328.893 171.56 330.696L171.416 331.112C171.374 331.219 171.31 331.309 171.224 331.384C171.15 331.459 171.064 331.496 170.968 331.496C170.84 331.496 170.755 331.485 170.712 331.464C170.67 331.443 170.643 331.379 170.632 331.272C170.579 330.749 170.536 330.051 170.504 329.176C170.483 328.952 170.462 328.584 170.44 328.072C170.334 326.269 170.238 325.053 170.152 324.424C170.067 323.784 170.024 323.427 170.024 323.352C170.024 323.267 170.067 323.165 170.152 323.048C170.238 322.931 170.318 322.872 170.392 322.872C170.563 322.872 170.702 322.995 170.808 323.24C170.862 323.357 170.92 323.827 170.984 324.648C171.048 325.469 171.102 326.488 171.144 327.704L171.224 330.152C171.811 328.339 172.419 326.696 173.048 325.224C173.678 323.741 174.254 323 174.776 323C175.128 323 175.368 323.256 175.496 323.768C175.624 324.28 175.688 325.021 175.688 325.992C175.688 326.504 175.678 327.24 175.656 328.2L175.64 328.936C176.078 327.411 176.51 326.131 176.936 325.096C177.374 324.061 177.811 323.544 178.248 323.544C179.347 323.544 179.896 325.976 179.896 330.84ZM187.337 327.688C187.337 328.104 187.182 328.584 186.873 329.128C186.563 329.672 186.126 330.141 185.561 330.536C184.995 330.92 184.35 331.112 183.625 331.112C182.91 331.112 182.382 330.915 182.041 330.52C181.699 330.125 181.529 329.635 181.529 329.048C181.529 328.536 181.619 327.901 181.801 327.144C181.993 326.387 182.259 325.709 182.601 325.112C182.622 325.069 182.707 324.915 182.857 324.648C183.017 324.371 183.193 324.163 183.385 324.024C183.577 323.875 183.779 323.8 183.993 323.8C184.089 323.8 184.174 323.827 184.249 323.88C184.334 323.923 184.377 323.981 184.377 324.056C184.377 324.077 184.345 324.131 184.281 324.216C184.227 324.291 184.185 324.349 184.153 324.392C183.79 324.829 183.497 325.261 183.273 325.688C182.974 326.232 182.739 326.771 182.569 327.304C182.409 327.837 182.329 328.419 182.329 329.048C182.329 329.891 182.841 330.312 183.865 330.312C184.345 330.312 184.787 330.173 185.193 329.896C185.609 329.619 185.939 329.283 186.185 328.888C186.43 328.483 186.553 328.115 186.553 327.784C186.553 327.411 186.43 327.085 186.185 326.808C185.939 326.531 185.603 326.237 185.177 325.928C184.899 325.725 184.697 325.56 184.569 325.432C184.441 325.304 184.377 325.197 184.377 325.112C184.377 324.984 184.467 324.883 184.649 324.808C184.83 324.723 185.043 324.68 185.289 324.68C185.427 324.68 185.518 324.691 185.561 324.712C185.603 324.723 185.625 324.749 185.625 324.792C185.625 324.813 185.603 324.851 185.561 324.904C185.529 324.947 185.513 324.984 185.513 325.016C185.513 325.048 185.619 325.155 185.833 325.336C186.259 325.688 186.617 326.045 186.905 326.408C187.193 326.771 187.337 327.197 187.337 327.688ZM194.117 331.112C194.117 331.24 194.063 331.347 193.957 331.432C193.85 331.528 193.722 331.576 193.573 331.576C193.466 331.576 193.375 331.549 193.301 331.496C193.226 331.453 193.189 331.389 193.189 331.304C193.189 330.867 193.221 330.189 193.285 329.272C193.349 328.291 193.381 327.475 193.381 326.824C193.381 326.195 193.359 325.683 193.317 325.288C193.285 324.883 193.199 324.68 193.061 324.68C192.698 324.68 192.298 325.133 191.861 326.04C191.434 326.936 190.943 328.12 190.389 329.592L190.149 330.232C190.106 330.339 190.031 330.424 189.924 330.488C189.829 330.552 189.727 330.584 189.621 330.584C189.493 330.584 189.407 330.573 189.365 330.552C189.322 330.531 189.295 330.467 189.285 330.36L189.157 329.048L188.917 326.744C188.842 325.827 188.751 325.027 188.645 324.344C188.613 324.184 188.597 324.061 188.597 323.976C188.597 323.816 188.666 323.688 188.805 323.592C188.943 323.485 189.103 323.432 189.285 323.432C189.391 323.432 189.466 323.688 189.509 324.2C189.562 324.712 189.615 325.539 189.669 326.68L189.733 327.528C189.818 328.605 189.866 329.288 189.877 329.576C189.909 329.512 189.935 329.443 189.957 329.368C189.989 329.283 190.026 329.192 190.069 329.096C190.645 327.603 191.183 326.36 191.685 325.368C192.197 324.365 192.687 323.864 193.157 323.864C193.487 323.864 193.711 324.147 193.829 324.712C193.957 325.267 194.037 325.981 194.069 326.856C194.101 327.827 194.117 329.245 194.117 331.112ZM203.076 324.376C203.076 324.557 202.996 324.696 202.836 324.792C202.687 324.888 202.409 324.963 202.004 325.016C201.023 325.187 200.473 325.283 200.356 325.304L199.316 325.48C199.316 326.035 199.321 326.616 199.332 327.224C199.353 327.832 199.38 328.365 199.412 328.824C199.455 329.443 199.529 329.917 199.636 330.248C199.743 330.579 199.801 330.765 199.812 330.808C199.812 330.915 199.743 331.011 199.604 331.096C199.476 331.192 199.353 331.24 199.236 331.24C199.172 331.24 199.119 331.219 199.076 331.176C199.033 331.144 198.996 331.085 198.964 331C198.9 330.851 198.836 330.573 198.772 330.168C198.719 329.763 198.676 329.315 198.644 328.824C198.612 328.387 198.585 327.88 198.564 327.304C198.553 326.717 198.548 326.152 198.548 325.608C197.951 325.704 197.337 325.821 196.708 325.96C196.143 326.077 195.807 326.136 195.7 326.136C195.572 326.136 195.449 326.099 195.332 326.024C195.225 325.949 195.172 325.848 195.172 325.72C195.172 325.581 195.22 325.491 195.316 325.448C195.412 325.405 195.572 325.384 195.796 325.384C195.956 325.384 196.191 325.357 196.5 325.304C196.809 325.24 197.007 325.197 197.092 325.176C197.807 325.037 198.292 324.947 198.548 324.904C198.548 324.68 198.537 324.387 198.516 324.024C198.495 323.533 198.484 323.16 198.484 322.904C198.484 322.488 198.495 322.168 198.516 321.944C198.548 321.709 198.601 321.501 198.676 321.32C198.761 321.107 198.921 321 199.156 321C199.252 321 199.316 321.016 199.348 321.048C199.38 321.08 199.396 321.139 199.396 321.224C199.396 321.288 199.369 321.475 199.316 321.784C199.263 322.093 199.236 322.504 199.236 323.016C199.236 323.411 199.247 323.853 199.268 324.344L199.284 324.776C199.764 324.701 200.713 324.504 202.132 324.184C202.217 324.163 202.287 324.088 202.34 323.96C202.404 323.832 202.468 323.768 202.532 323.768C202.649 323.768 202.767 323.837 202.884 323.976C203.012 324.104 203.076 324.237 203.076 324.376ZM210.87 331.224C210.87 331.352 210.827 331.459 210.742 331.544C210.657 331.64 210.545 331.688 210.406 331.688C210.299 331.688 210.209 331.661 210.134 331.608C210.059 331.565 210.022 331.501 210.022 331.416L210.054 330.312C210.107 329 210.134 327.928 210.134 327.096C210.134 325.88 210.049 325.032 209.878 324.552C209.707 324.061 209.51 323.816 209.286 323.816C208.785 323.816 208.155 324.595 207.398 326.152C206.641 327.699 205.91 329.389 205.206 331.224C205.153 331.373 205.078 331.517 204.982 331.656C204.897 331.795 204.806 331.864 204.71 331.864C204.475 331.864 204.358 331.789 204.358 331.64C204.358 330.989 204.331 329.773 204.278 327.992C204.225 326.2 204.182 325.021 204.15 324.456C204.054 322.547 203.963 321.368 203.878 320.92C203.793 320.472 203.75 320.232 203.75 320.2C203.75 320.093 203.809 320.013 203.926 319.96C204.043 319.907 204.193 319.88 204.374 319.88C204.523 319.88 204.63 320.221 204.694 320.904C204.769 321.576 204.822 322.44 204.854 323.496L204.87 323.944C204.891 324.275 204.907 325.224 204.918 326.792C204.929 328.349 204.934 329.496 204.934 330.232C205.425 329.005 205.883 327.912 206.31 326.952C206.747 325.992 207.249 325.096 207.814 324.264C208.379 323.421 208.902 323 209.382 323C209.787 323 210.129 323.341 210.406 324.024C210.683 324.696 210.822 325.704 210.822 327.048C210.822 327.645 210.833 328.477 210.854 329.544L210.87 331.224ZM218.592 328.76C218.592 329.229 218.4 329.683 218.016 330.12C217.642 330.547 217.146 330.888 216.528 331.144C215.909 331.411 215.264 331.544 214.592 331.544C214.133 331.544 213.824 331.501 213.664 331.416C213.504 331.331 213.424 331.213 213.424 331.064C213.424 330.968 213.546 330.803 213.792 330.568C214.037 330.323 214.202 330.2 214.288 330.2C214.416 330.2 214.48 330.227 214.48 330.28C214.48 330.323 214.453 330.365 214.4 330.408C214.346 330.451 214.32 330.488 214.32 330.52C214.32 330.563 214.384 330.605 214.512 330.648C214.65 330.691 214.816 330.712 215.008 330.712C215.456 330.712 215.904 330.632 216.352 330.472C216.81 330.301 217.184 330.083 217.472 329.816C217.76 329.549 217.904 329.267 217.904 328.968C217.904 328.68 217.813 328.451 217.632 328.28C217.45 328.109 217.221 327.987 216.944 327.912C216.677 327.827 216.224 327.709 215.584 327.56C214.88 327.4 214.33 327.261 213.936 327.144C213.552 327.016 213.242 326.861 213.008 326.68C212.773 326.488 212.656 326.248 212.656 325.96C212.656 325.448 212.906 324.979 213.408 324.552C213.909 324.125 214.485 323.789 215.136 323.544C215.786 323.299 216.288 323.176 216.64 323.176C217.002 323.176 217.184 323.283 217.184 323.496C217.184 323.624 217.141 323.768 217.056 323.928C216.97 324.077 216.842 324.152 216.672 324.152C216.608 324.152 216.538 324.131 216.464 324.088C216.389 324.035 216.314 324.008 216.24 324.008C216.026 324.008 215.69 324.077 215.232 324.216C214.773 324.355 214.357 324.563 213.984 324.84C213.61 325.117 213.424 325.453 213.424 325.848C213.424 326.104 213.568 326.296 213.856 326.424C214.154 326.541 214.704 326.691 215.504 326.872C215.6 326.904 215.696 326.931 215.792 326.952C215.888 326.963 215.973 326.979 216.048 327C216.869 327.192 217.498 327.411 217.936 327.656C218.373 327.901 218.592 328.269 218.592 328.76ZM226.102 330.568C226.102 330.675 226.033 330.76 225.894 330.824C225.756 330.888 225.601 330.92 225.43 330.92C225.302 330.92 225.18 330.771 225.062 330.472C224.956 330.163 224.902 329.699 224.902 329.08C224.913 327.875 224.929 326.419 224.95 324.712C224.982 323.005 225.009 321.72 225.03 320.856C225.041 320.547 225.094 320.259 225.19 319.992C225.297 319.725 225.478 319.592 225.734 319.592C225.82 319.592 225.873 319.64 225.894 319.736C225.926 319.821 225.942 319.992 225.942 320.248C225.942 320.259 225.937 320.296 225.926 320.36C225.926 320.413 225.926 320.515 225.926 320.664C225.734 323.469 225.638 326.205 225.638 328.872C225.638 329.213 225.713 329.576 225.862 329.96C226.022 330.344 226.102 330.547 226.102 330.568ZM234.378 329.976C234.388 330.051 234.431 330.131 234.506 330.216C234.58 330.291 234.618 330.355 234.618 330.408C234.618 330.536 234.564 330.685 234.458 330.856C234.351 331.016 234.244 331.096 234.138 331.096C233.956 331.096 233.818 330.984 233.722 330.76C233.626 330.536 233.578 330.275 233.578 329.976C233.578 329.72 233.594 328.952 233.626 327.672L233.642 327.064C233.642 326.819 233.578 326.643 233.45 326.536C232.97 327.347 232.522 328.051 232.106 328.648C231.69 329.245 231.162 329.811 230.522 330.344C229.882 330.867 229.21 331.128 228.506 331.128C228.164 331.128 227.897 331.021 227.706 330.808C227.524 330.595 227.434 330.317 227.434 329.976C227.434 329.549 227.626 328.968 228.01 328.232C228.394 327.485 228.884 326.733 229.482 325.976C230.079 325.208 230.676 324.579 231.274 324.088C231.668 323.768 231.983 323.555 232.218 323.448C232.452 323.331 232.66 323.272 232.842 323.272C233.012 323.272 233.188 323.325 233.37 323.432C233.551 323.539 233.706 323.688 233.834 323.88C233.962 324.072 234.026 324.291 234.026 324.536C234.026 324.867 233.935 325.181 233.754 325.48L234.026 325.4C234.143 325.4 234.212 325.544 234.234 325.832C234.244 326.003 234.255 326.349 234.266 326.872C234.287 327.395 234.303 327.827 234.314 328.168C234.324 328.52 234.335 328.861 234.346 329.192C234.356 329.523 234.367 329.784 234.378 329.976ZM228.73 330.264C229.306 330.264 229.86 330.051 230.394 329.624C230.927 329.197 231.402 328.691 231.818 328.104C232.244 327.507 232.714 326.776 233.226 325.912C233.354 325.592 233.418 325.245 233.418 324.872C233.418 324.648 233.348 324.456 233.21 324.296C233.082 324.125 232.906 324.04 232.682 324.04C232.415 324.04 232.074 324.221 231.658 324.584C231.178 324.989 230.671 325.533 230.138 326.216C229.604 326.888 229.162 327.555 228.81 328.216C228.458 328.877 228.282 329.4 228.282 329.784C228.282 330.104 228.431 330.264 228.73 330.264ZM243.31 324.376C243.31 324.557 243.23 324.696 243.07 324.792C242.921 324.888 242.644 324.963 242.238 325.016C241.257 325.187 240.708 325.283 240.59 325.304L239.55 325.48C239.55 326.035 239.556 326.616 239.566 327.224C239.588 327.832 239.614 328.365 239.646 328.824C239.689 329.443 239.764 329.917 239.87 330.248C239.977 330.579 240.036 330.765 240.046 330.808C240.046 330.915 239.977 331.011 239.838 331.096C239.71 331.192 239.588 331.24 239.47 331.24C239.406 331.24 239.353 331.219 239.31 331.176C239.268 331.144 239.23 331.085 239.198 331C239.134 330.851 239.07 330.573 239.006 330.168C238.953 329.763 238.91 329.315 238.878 328.824C238.846 328.387 238.82 327.88 238.798 327.304C238.788 326.717 238.782 326.152 238.782 325.608C238.185 325.704 237.572 325.821 236.942 325.96C236.377 326.077 236.041 326.136 235.934 326.136C235.806 326.136 235.684 326.099 235.566 326.024C235.46 325.949 235.406 325.848 235.406 325.72C235.406 325.581 235.454 325.491 235.55 325.448C235.646 325.405 235.806 325.384 236.03 325.384C236.19 325.384 236.425 325.357 236.734 325.304C237.044 325.24 237.241 325.197 237.326 325.176C238.041 325.037 238.526 324.947 238.782 324.904C238.782 324.68 238.772 324.387 238.75 324.024C238.729 323.533 238.718 323.16 238.718 322.904C238.718 322.488 238.729 322.168 238.75 321.944C238.782 321.709 238.836 321.501 238.91 321.32C238.996 321.107 239.156 321 239.39 321C239.486 321 239.55 321.016 239.582 321.048C239.614 321.08 239.63 321.139 239.63 321.224C239.63 321.288 239.604 321.475 239.55 321.784C239.497 322.093 239.47 322.504 239.47 323.016C239.47 323.411 239.481 323.853 239.502 324.344L239.518 324.776C239.998 324.701 240.948 324.504 242.366 324.184C242.452 324.163 242.521 324.088 242.574 323.96C242.638 323.832 242.702 323.768 242.766 323.768C242.884 323.768 243.001 323.837 243.118 323.976C243.246 324.104 243.31 324.237 243.31 324.376ZM250.177 326.92C250.251 326.92 250.289 327 250.289 327.16C250.289 327.352 250.145 327.773 249.857 328.424C249.579 329.075 249.153 329.677 248.577 330.232C248.011 330.787 247.313 331.064 246.481 331.064C245.798 331.064 245.227 330.851 244.769 330.424C244.31 329.997 244.081 329.341 244.081 328.456C244.081 327.624 244.273 326.803 244.657 325.992C245.041 325.171 245.542 324.504 246.161 323.992C246.779 323.469 247.419 323.208 248.081 323.208C248.475 323.208 248.806 323.299 249.073 323.48C249.35 323.651 249.489 323.901 249.489 324.232C249.489 324.605 249.275 324.968 248.849 325.32C248.433 325.672 247.889 325.981 247.217 326.248C246.545 326.515 245.851 326.707 245.137 326.824C245.009 327.315 244.945 327.795 244.945 328.264C244.945 328.883 245.089 329.363 245.377 329.704C245.675 330.045 246.097 330.216 246.641 330.216C247.462 330.216 248.129 329.923 248.641 329.336C249.153 328.749 249.579 328.088 249.921 327.352C249.942 327.309 249.979 327.229 250.033 327.112C250.086 326.984 250.134 326.92 250.177 326.92ZM248.769 324.408C248.769 324.237 248.678 324.104 248.497 324.008C248.326 323.912 248.123 323.864 247.889 323.864C247.483 323.864 247.094 323.997 246.721 324.264C246.347 324.531 246.033 324.851 245.777 325.224C245.531 325.597 245.371 325.928 245.297 326.216C245.787 326.163 246.305 326.024 246.849 325.8C247.393 325.576 247.846 325.331 248.209 325.064C248.582 324.797 248.769 324.579 248.769 324.408ZM257.038 324.264C257.038 324.36 256.969 324.472 256.83 324.6C256.702 324.717 256.59 324.776 256.494 324.776C256.42 324.776 256.345 324.744 256.27 324.68C256.206 324.616 256.132 324.525 256.046 324.408C255.972 324.301 255.87 324.211 255.742 324.136C255.625 324.061 255.502 324.024 255.374 324.024C255.065 324.024 254.649 324.435 254.126 325.256C253.604 326.067 253.092 327.091 252.59 328.328C252.601 328.573 252.617 328.883 252.638 329.256C252.67 329.629 252.692 329.907 252.702 330.088L252.75 330.728C252.75 330.877 252.718 331.005 252.654 331.112C252.59 331.229 252.473 331.288 252.302 331.288C252.121 331.288 252.004 331.048 251.95 330.568C251.897 330.077 251.865 329.368 251.854 328.44C251.844 328.205 251.833 327.869 251.822 327.432C251.822 326.995 251.812 326.472 251.79 325.864C251.758 324.947 251.742 324.291 251.742 323.896C251.742 323.651 251.892 323.528 252.19 323.528C252.372 323.528 252.478 323.608 252.51 323.768C252.553 323.917 252.574 324.211 252.574 324.648V327.192C252.894 326.371 253.241 325.661 253.614 325.064C253.988 324.467 254.35 324.013 254.702 323.704C255.065 323.384 255.385 323.224 255.662 323.224C255.897 323.224 256.121 323.277 256.334 323.384C256.548 323.491 256.718 323.629 256.846 323.8C256.974 323.96 257.038 324.115 257.038 324.264Z" fill="white"/>
</svg>
